<?xml version="1.0" encoding="utf-8"?>
<!-- Generator: Adobe Illustrator 29.7.1, SVG Export Plug-In . SVG Version: 9.03 Build 0)  -->
<svg version="1.0" id="Layer_1" xmlns="http://www.w3.org/2000/svg" xmlns:xlink="http://www.w3.org/1999/xlink" x="0px" y="0px"
	 viewBox="0 0 406.6 319.5" style="enable-background:new 0 0 406.6 319.5;" xml:space="preserve">
<style type="text/css">
	.st0{fill:#FFFFFF;}
	.st1{opacity:0.2;fill:url(#SVGID_1_);}
	.st2{opacity:0.3;fill:url(#SVGID_00000141455961937004920120000000046897247917457801_);}
	.st3{opacity:0.9;}
	.st4{opacity:0.25;fill:url(#SVGID_00000181795920043600366880000008465369425740981389_);}
	.st5{opacity:0.4;fill:url(#SVGID_00000041285433401004700010000005907079751349671606_);}
	.st6{opacity:0.15;fill:url(#SVGID_00000007400856420578613470000009449561925302909066_);}
	.st7{opacity:0.3;fill:url(#SVGID_00000138574454147310714750000000847688621032119207_);}
	.st8{opacity:0.15;fill:url(#SVGID_00000075871281577261024050000002420355153519907511_);}
	.st9{opacity:0.3;fill:url(#SVGID_00000148637896921545073760000000751013499280237197_);}
	.st10{opacity:0.15;fill:url(#SVGID_00000160894071634437325660000006693831699682779277_);}
	.st11{opacity:0.4;fill:url(#SVGID_00000142874983806932175930000003990648582491071618_);}
	.st12{opacity:0.15;fill:url(#SVGID_00000124862646372113012980000006329592921163255694_);}
	.st13{opacity:0.3;fill:url(#SVGID_00000147913463242178167360000011895505431368857233_);}
	.st14{opacity:0.15;fill:url(#SVGID_00000122714780497205655270000016578477682108906633_);}
	.st15{opacity:0.3;fill:url(#SVGID_00000145043237537709231040000009874699297258213307_);}
	.st16{opacity:0.8;}
	.st17{opacity:0.15;fill:url(#SVGID_00000157301237195081013600000003934597354402972090_);}
	.st18{opacity:0.3;fill:url(#SVGID_00000024692198429097292100000002603233385784062601_);}
	.st19{opacity:0.15;fill:url(#SVGID_00000072958841042169968870000010761235105592156047_);}
	.st20{opacity:0.3;fill:url(#SVGID_00000065762731083173589520000014766266339534233777_);}
	.st21{opacity:0.25;fill:url(#SVGID_00000175284599385830160980000006018370560474844329_);}
	.st22{opacity:0.4;fill:url(#SVGID_00000089571367408483449080000003969403960640488844_);}
	.st23{opacity:0.1;fill:#006FF7;}
	.st24{fill:none;stroke:#FFFFFF;stroke-width:8;stroke-linecap:round;stroke-miterlimit:10;}
	.st25{opacity:0.2;fill:#006FF7;}
	.st26{opacity:0.1;fill:none;stroke:#006FF7;stroke-width:2;stroke-linecap:round;stroke-miterlimit:10;}
	.st27{opacity:5.000000e-02;fill:#006FF7;}
	.st28{opacity:3.000000e-02;fill:#006FF7;}
	.st29{opacity:7.000000e-02;fill:#006FF7;}
	.st30{fill:none;stroke:#FFFFFF;stroke-width:2;stroke-miterlimit:10;}
	.st31{opacity:0.15;fill:#006FF7;}
	.st32{opacity:4.000000e-02;fill:#006FF7;}
	.st33{opacity:0.1;fill:none;stroke:#006FF7;stroke-width:5;stroke-miterlimit:10;}
	.st34{fill:none;stroke:#FFFFFF;stroke-width:3;stroke-linecap:round;stroke-miterlimit:10;}
	.st35{opacity:0.1;fill:none;stroke:#006FF7;stroke-width:5;stroke-linecap:round;stroke-miterlimit:10;}
	.st36{opacity:0.15;fill:url(#SVGID_00000176755458816718305140000018370448400612573350_);}
	.st37{opacity:0.3;fill:url(#SVGID_00000057146763894976243810000004909002260759283074_);}
	.st38{opacity:0.15;fill:url(#SVGID_00000038415217315663921730000003320061528899851168_);}
	.st39{opacity:0.3;fill:url(#SVGID_00000091014289482174898060000004298062112169254581_);}
	.st40{opacity:0.25;fill:url(#SVGID_00000165938836228233373150000014137136401019692191_);}
	.st41{opacity:0.4;fill:url(#SVGID_00000112591068283899406350000008182730934831949980_);}
	.st42{opacity:0.3;fill:none;stroke:#006FF7;stroke-linecap:round;stroke-miterlimit:10;stroke-dasharray:5;}
	.st43{opacity:0.5;fill:#FFFFFF;}
	.st44{opacity:0.25;fill:url(#SVGID_00000017495652662119912350000012216057862317441929_);}
	.st45{opacity:0.4;fill:url(#SVGID_00000127737594786530122830000006497960340166147972_);}
	.st46{opacity:0.15;fill:url(#SVGID_00000067234396308162232870000006012794421028952458_);}
	.st47{opacity:0.4;fill:url(#SVGID_00000106844535690901364560000014895860071834616739_);}
	.st48{opacity:0.15;fill:url(#SVGID_00000052085386459853221530000008573264287660056460_);}
	.st49{opacity:0.3;fill:url(#SVGID_00000107578664603574082170000009297265203406963887_);}
	.st50{fill:none;}
	.st51{opacity:0.2;fill:url(#SVGID_00000085239543595308390470000014162763834166328202_);}
	.st52{opacity:0.3;fill:url(#SVGID_00000079484207533237534730000000337780454518396579_);}
	.st53{opacity:0.15;fill:url(#SVGID_00000142879700382463711520000018019482730066412673_);}
	.st54{opacity:0.3;fill:url(#SVGID_00000116197071459032147640000001494309037757913749_);}
	.st55{opacity:0.15;fill:url(#SVGID_00000158028505461596058140000008830464060441908886_);}
	.st56{opacity:0.3;fill:url(#SVGID_00000100351058532937567550000011314471721138434719_);}
	.st57{opacity:0.15;fill:url(#SVGID_00000043449838560510594870000001348561606091544707_);}
	.st58{opacity:0.3;fill:url(#SVGID_00000120519811645529290920000006464907565333472191_);}
</style>
<g>
	
		<radialGradient id="SVGID_1_" cx="-7729.3804" cy="863.4953" r="151.5849" fx="-7721.585" fy="847.7822" gradientTransform="matrix(-6.562044e-02 0.7773 -0.8533 -7.721731e-02 381.6214 6259.0103)" gradientUnits="userSpaceOnUse">
		<stop  offset="0.1936" style="stop-color:#006FF7"/>
		<stop  offset="0.2416" style="stop-color:#318BF9"/>
		<stop  offset="0.3013" style="stop-color:#67A9FA"/>
		<stop  offset="0.3618" style="stop-color:#96C3FC"/>
		<stop  offset="0.4216" style="stop-color:#BCD9FD"/>
		<stop  offset="0.4807" style="stop-color:#D9EAFE"/>
		<stop  offset="0.539" style="stop-color:#EEF5FE"/>
		<stop  offset="0.5958" style="stop-color:#FBFDFF"/>
		<stop  offset="0.6499" style="stop-color:#FFFFFF"/>
	</radialGradient>
	<path class="st1" d="M112.7,276.7C52,271.2,6.6,221.9,11.3,166.6s57.7-95.7,118.3-90.2c60.7,5.5,106.1,54.8,101.4,110.1
		C226.4,241.8,173.4,282.2,112.7,276.7z"/>
	
		<radialGradient id="SVGID_00000019650578357360328170000014301587917484913847_" cx="-7361.5791" cy="357.0667" r="144.4264" fx="-7354.1519" fy="342.0957" gradientTransform="matrix(-6.800652e-02 0.808 -0.8748 -7.899372e-02 8.8236 6169.0767)" gradientUnits="userSpaceOnUse">
		<stop  offset="0" style="stop-color:#8B8BFF"/>
		<stop  offset="0.2429" style="stop-color:#BDBDFF;stop-opacity:0.8136"/>
		<stop  offset="0.5864" style="stop-color:#FFFFFF;stop-opacity:0.55"/>
	</radialGradient>
	<path style="opacity:0.3;fill:url(#SVGID_00000019650578357360328170000014301587917484913847_);" d="M168,277.3
		c-67.8-6.1-118.9-57.7-114-115.1s63.7-99.1,131.5-93s118.9,57.7,114,115.1C294.7,241.8,235.8,283.4,168,277.3z"/>
</g>
<g>
	<path class="st27" d="M273.8,131.9v89.3c0,3.3-2.6,5.9-5.9,5.9H156.3c-3.3,0-5.9-2.6-5.9-5.9v-89.3c0-3.3,2.7-5.9,5.9-5.9h111.6
		C271.1,126,273.8,128.6,273.8,131.9z"/>
	<path class="st31" d="M156.3,227.1h-19.2c-3.3,0-5.9-2.6-5.9-5.9v-89.3c0-3.3,2.6-5.9,5.9-5.9h19.2c-3.3,0-5.9,2.6-5.9,5.9v89.3
		C150.4,224.5,153,227.1,156.3,227.1z"/>
	<path class="st27" d="M257.9,217.1h-91.6c-3.3,0-5.9-2.7-5.9-5.9v-69.3c0-3.3,2.7-5.9,5.9-5.9h91.6c3.3,0,5.9,2.7,5.9,5.9v69.3
		C263.8,214.5,261.1,217.1,257.9,217.1z"/>
	<path class="st0" d="M247.1,208.6h-70c-3.3,0-5.9-2.7-5.9-5.9v-52.3c0-3.3,2.7-5.9,5.9-5.9h70c3.3,0,5.9,2.7,5.9,5.9v52.3
		C253,206,250.4,208.6,247.1,208.6z"/>
	<path class="st0" d="M247.1,208.6h-70c-3.3,0-5.9-2.7-5.9-5.9v-52.3c0-3.3,2.7-5.9,5.9-5.9h70c3.3,0,5.9,2.7,5.9,5.9v52.3
		C253,206,250.4,208.6,247.1,208.6z"/>
</g>
<path class="st33" d="M167.7,126V97.5c0-6,4.9-10.9,10.9-10.9h50.3c6,0,10.9,4.9,10.9,10.9V126"/>
<line class="st33" x1="167.7" y1="126" x2="167.7" y2="115.8"/>
<line class="st33" x1="239.8" y1="126" x2="239.8" y2="115.8"/>
<path class="st27" d="M212.1,196.2c-4.6,0-8.4-3.8-8.4-8.4v-8.1c-3-2.5-4.6-6.3-4.4-10.3c0.3-6.5,5.6-11.8,12.1-12.2
	c0.2,0,0.5,0,0.7,0c0.8,0,1.5,0.1,2.2,0.2c6.1,1.1,10.5,6.4,10.5,12.6c0,3.8-1.6,7.3-4.4,9.7v8.1
	C220.5,192.5,216.7,196.2,212.1,196.2z"/>
<path class="st23" d="M221.9,170c0,3.4-1.8,6.4-4.4,8.2v9.6c0,3-2.4,5.4-5.4,5.4h0c-3,0-5.4-2.4-5.4-5.4v-9.6
	c-2.8-1.8-4.6-5-4.4-8.6c0.2-5,4.3-9,9.2-9.3c0.8,0,1.5,0,2.2,0.1C218.4,161.2,221.9,165.2,221.9,170z"/>
</svg>
