<?xml version="1.0" encoding="utf-8"?>
<!-- Generator: Adobe Illustrator 29.7.1, SVG Export Plug-In . SVG Version: 9.03 Build 0)  -->
<svg version="1.0" id="Layer_1" xmlns="http://www.w3.org/2000/svg" xmlns:xlink="http://www.w3.org/1999/xlink" x="0px" y="0px"
	 viewBox="0 0 406.6 319.5" style="enable-background:new 0 0 406.6 319.5;" xml:space="preserve">
<style type="text/css">
	.st0{fill:#FFFFFF;}
	.st1{opacity:0.2;fill:url(#SVGID_1_);}
	.st2{opacity:0.3;fill:url(#SVGID_00000039815075915467268610000003317464325791864982_);}
	.st3{opacity:0.9;}
	.st4{opacity:0.25;fill:url(#SVGID_00000110429765661164909490000015260880664983189182_);}
	.st5{opacity:0.4;fill:url(#SVGID_00000169533115347491926480000001489725858355307418_);}
	.st6{opacity:0.15;fill:url(#SVGID_00000018202715666864082290000013349864775041929119_);}
	.st7{opacity:0.3;fill:url(#SVGID_00000154386337081657862280000012121704422915772301_);}
	.st8{opacity:0.15;fill:url(#SVGID_00000039838247386294511240000010758841460961428879_);}
	.st9{opacity:0.3;fill:url(#SVGID_00000047779205929454124580000008192265303441254584_);}
	.st10{opacity:0.15;fill:url(#SVGID_00000000196910338480322840000004389415663821055875_);}
	.st11{opacity:0.4;fill:url(#SVGID_00000004511212129693339950000010209166847604101546_);}
	.st12{opacity:0.15;fill:url(#SVGID_00000047738473639474158730000012684635779237094075_);}
	.st13{opacity:0.3;fill:url(#SVGID_00000038404064667803364380000013690963109833408171_);}
	.st14{opacity:0.15;fill:url(#SVGID_00000101067201781096464950000002041028670580724885_);}
	.st15{opacity:0.3;fill:url(#SVGID_00000022552067559959277570000011910220899401229706_);}
	.st16{opacity:0.8;}
	.st17{opacity:0.15;fill:url(#SVGID_00000013163255912172934910000014665582725221521291_);}
	.st18{opacity:0.3;fill:url(#SVGID_00000014612477090502362850000003865164512923637889_);}
	.st19{opacity:0.15;fill:url(#SVGID_00000147209355562969275190000008198838721953210257_);}
	.st20{opacity:0.3;fill:url(#SVGID_00000156565247918674359320000008205332237761567118_);}
	.st21{opacity:0.25;fill:url(#SVGID_00000093172952943245574340000015558930518423294132_);}
	.st22{opacity:0.4;fill:url(#SVGID_00000049926789402471919850000009091551329657776295_);}
	.st23{opacity:0.1;fill:#006FF7;}
	.st24{fill:none;stroke:#FFFFFF;stroke-width:8;stroke-linecap:round;stroke-miterlimit:10;}
	.st25{opacity:0.2;fill:#006FF7;}
	.st26{opacity:0.1;fill:none;stroke:#006FF7;stroke-width:2;stroke-linecap:round;stroke-miterlimit:10;}
	.st27{opacity:5.000000e-02;fill:#006FF7;}
	.st28{opacity:3.000000e-02;fill:#006FF7;}
	.st29{opacity:7.000000e-02;fill:#006FF7;}
	.st30{fill:none;stroke:#FFFFFF;stroke-width:2;stroke-miterlimit:10;}
	.st31{opacity:0.15;fill:#006FF7;}
	.st32{opacity:4.000000e-02;fill:#006FF7;}
	.st33{opacity:0.1;fill:none;stroke:#006FF7;stroke-width:5;stroke-miterlimit:10;}
	.st34{fill:none;stroke:#FFFFFF;stroke-width:3;stroke-linecap:round;stroke-miterlimit:10;}
	.st35{opacity:0.1;fill:none;stroke:#006FF7;stroke-width:5;stroke-linecap:round;stroke-miterlimit:10;}
	.st36{opacity:0.15;fill:url(#SVGID_00000051381983258223432800000002330938734116320918_);}
	.st37{opacity:0.3;fill:url(#SVGID_00000164493586553089904480000002148115598602614183_);}
	.st38{opacity:0.15;fill:url(#SVGID_00000080917361703194611740000008403395498922199424_);}
	.st39{opacity:0.3;fill:url(#SVGID_00000029753447971343703220000004483589780699016599_);}
	.st40{opacity:0.25;fill:url(#SVGID_00000052796540190881927200000001794234121040509620_);}
	.st41{opacity:0.4;fill:url(#SVGID_00000102538097494546841170000007208800035749174403_);}
	.st42{opacity:0.3;fill:none;stroke:#006FF7;stroke-linecap:round;stroke-miterlimit:10;stroke-dasharray:5;}
	.st43{opacity:0.5;fill:#FFFFFF;}
	.st44{opacity:0.25;fill:url(#SVGID_00000181084937334522097730000018092968522402333861_);}
	.st45{opacity:0.4;fill:url(#SVGID_00000028327178687397077870000003166945965481567883_);}
	.st46{opacity:0.15;fill:url(#SVGID_00000146459226457736819310000002461498543491238805_);}
	.st47{opacity:0.4;fill:url(#SVGID_00000073718624892607351960000017820468719775478420_);}
	.st48{opacity:0.15;fill:url(#SVGID_00000155855174952732311340000010198769982511390365_);}
	.st49{opacity:0.3;fill:url(#SVGID_00000085216994376520919860000015573406897713961395_);}
	.st50{fill:none;}
	.st51{opacity:0.2;fill:url(#SVGID_00000092437279745378683420000004934934763662332290_);}
	.st52{opacity:0.3;fill:url(#SVGID_00000021088805998380133990000017671244177221017738_);}
	.st53{opacity:0.15;fill:url(#SVGID_00000173137623362253700840000006361623803474748590_);}
	.st54{opacity:0.3;fill:url(#SVGID_00000051341774699448563240000001994257097610039182_);}
	.st55{opacity:0.15;fill:url(#SVGID_00000062899117049396152610000007861613789029031842_);}
	.st56{opacity:0.3;fill:url(#SVGID_00000092438626469977841680000011642847446157428630_);}
	.st57{opacity:0.15;fill:url(#SVGID_00000103967282863166100670000002033950462442505107_);}
	.st58{opacity:0.3;fill:url(#SVGID_00000049932795346213506140000016346224808612236697_);}
</style>
<g class="st3">
	
		<radialGradient id="SVGID_1_" cx="-3810.0291" cy="3125.5681" r="143.2203" fx="-3802.6641" fy="3110.7222" gradientTransform="matrix(-0.6391 0.5869 -0.5517 -0.6081 -508.8311 4296.8799)" gradientUnits="userSpaceOnUse">
		<stop  offset="0.1936" style="stop-color:#006FF7"/>
		<stop  offset="0.2416" style="stop-color:#318BF9"/>
		<stop  offset="0.3013" style="stop-color:#67A9FA"/>
		<stop  offset="0.3618" style="stop-color:#96C3FC"/>
		<stop  offset="0.4216" style="stop-color:#BCD9FD"/>
		<stop  offset="0.4807" style="stop-color:#D9EAFE"/>
		<stop  offset="0.539" style="stop-color:#EEF5FE"/>
		<stop  offset="0.5958" style="stop-color:#FBFDFF"/>
		<stop  offset="0.6499" style="stop-color:#FFFFFF"/>
	</radialGradient>
	<path style="opacity:0.25;fill:url(#SVGID_1_);" d="M108.7,207.3c-37.1-40.9-32.3-106,10.6-145.4s107.8-38.3,144.9,2.6
		s32.3,106-10.6,145.4S145.8,248.2,108.7,207.3z"/>
	
		<radialGradient id="SVGID_00000150086302660091409150000009557643433146605997_" cx="-3634.4058" cy="2450.6621" r="136.4568" fx="-3627.3884" fy="2436.5173" gradientTransform="matrix(-0.6642 0.6101 -0.5657 -0.6233 -811.3748 3924.8682)" gradientUnits="userSpaceOnUse">
		<stop  offset="0" style="stop-color:#8B8BFF"/>
		<stop  offset="0.2429" style="stop-color:#BDBDFF;stop-opacity:0.8136"/>
		<stop  offset="0.5864" style="stop-color:#FFFFFF;stop-opacity:0.55"/>
	</radialGradient>
	<path style="opacity:0.4;fill:url(#SVGID_00000150086302660091409150000009557643433146605997_);" d="M135.7,226.8
		c-41.4-45.6-38.8-115.9,5.8-156.9s114.4-37.2,155.8,8.4s38.8,115.9-5.8,156.9S177.1,272.5,135.7,226.8z"/>
</g>
<path class="st28" d="M283.6,169.9c-0.7,30.8-25.8,55.5-56.8,55.5h-21.6v-12h20.4c24.6,0,44.6-19.3,45.9-43.5H283.6z"/>
<path class="st29" d="M271.5,169.9c-1.3,24.2-21.4,43.5-45.9,43.5h-20.4v-12h19.1c9.7,0,18.5-3.9,24.9-10.3
	c5.5-5.5,9.2-12.9,10.1-21.1H271.5z"/>
<path class="st23" d="M259.4,169.9c-0.9,8.2-4.6,15.6-10.1,21.1c-6.4,6.4-15.2,10.3-24.9,10.3h-19.1v-31.4H259.4z"/>
<g>
	<g>
		<path class="st28" d="M197.7,213.4v12h-21.3c-30.9,0-56.1-24.7-56.7-55.5h12.1c1.3,24.2,21.4,43.5,45.9,43.5H197.7z"/>
		<path class="st29" d="M197.7,201.4v12h-20c-24.6,0-44.6-19.3-45.9-43.5h12.2c1.9,17.7,16.8,31.4,35,31.4H197.7z"/>
		<path class="st23" d="M197.7,169.9v31.4h-18.8c-18.2,0-33.1-13.8-35-31.4H197.7z"/>
	</g>
	<g>
		<path class="st28" d="M197.7,106.9v12h-20c-24.6,0-44.6,19.3-45.9,43.5h-12.1c0.7-30.8,25.8-55.5,56.7-55.5H197.7z"/>
		<path class="st29" d="M197.7,118.9v12h-18.8c-9.7,0-18.5,3.9-24.9,10.3c-5.5,5.5-9.2,12.9-10.1,21.1h-12.2
			c1.3-24.2,21.4-43.5,45.9-43.5H197.7z"/>
		<path class="st23" d="M197.7,130.9v31.5h-53.8c0.9-8.2,4.6-15.6,10.1-21.1c6.4-6.4,15.2-10.3,24.9-10.3H197.7z"/>
	</g>
</g>
<path class="st28" d="M283.6,162.4h-12.1c-1.3-24.2-21.4-43.5-45.9-43.5h-20.4v-12h21.6C257.8,106.9,282.9,131.6,283.6,162.4z"/>
<path class="st29" d="M271.5,162.4h-12.2c-1.9-17.7-16.8-31.5-35-31.5h-19.1v-12h20.4C250.2,118.9,270.2,138.2,271.5,162.4z"/>
<path class="st23" d="M259.4,162.4h-54.1v-31.5h19.1C242.5,130.9,257.5,144.7,259.4,162.4z"/>
<circle class="st43" cx="201.6" cy="165.8" r="26.4"/>
<circle class="st0" cx="201.6" cy="165.8" r="17.4"/>
<g>
	<path class="st42" d="M112.6,125.7v-18.5c0-2.9,2.3-5.2,5.2-5.2h20.9"/>
	<path class="st42" d="M112.6,206.6v18.5c0,2.9,2.3,5.2,5.2,5.2h20.9"/>
	<path class="st42" d="M290.6,125.7v-18.5c0-2.9-2.3-5.2-5.2-5.2h-20.9"/>
	<path class="st42" d="M290.6,206.6v18.5c0,2.9-2.3,5.2-5.2,5.2h-20.9"/>
</g>
<polyline class="st35" points="193.1,167 199.7,171.9 210.1,160.7 "/>
</svg>
