<?xml version="1.0" encoding="utf-8"?>
<!-- Generator: Adobe Illustrator 29.7.1, SVG Export Plug-In . SVG Version: 9.03 Build 0)  -->
<svg version="1.0" id="Layer_1" xmlns="http://www.w3.org/2000/svg" xmlns:xlink="http://www.w3.org/1999/xlink" x="0px" y="0px"
	 viewBox="0 0 406.6 319.5" style="enable-background:new 0 0 406.6 319.5;" xml:space="preserve">
<style type="text/css">
	.st0{fill:#FFFFFF;}
	.st1{opacity:0.2;fill:url(#SVGID_1_);}
	.st2{opacity:0.3;fill:url(#SVGID_00000133490520256104113510000006968490972238490040_);}
	.st3{opacity:0.9;}
	.st4{opacity:0.25;fill:url(#SVGID_00000127038563590201425720000018394270384693361562_);}
	.st5{opacity:0.4;fill:url(#SVGID_00000112609483484708399380000002927420163554964658_);}
	.st6{opacity:0.15;fill:url(#SVGID_00000010281581009907026040000012430692469698948004_);}
	.st7{opacity:0.3;fill:url(#SVGID_00000018954394453657749820000010550783438008813703_);}
	.st8{opacity:0.15;fill:url(#SVGID_00000158720465592493969660000001831021321889577893_);}
	.st9{opacity:0.3;fill:url(#SVGID_00000114059407081019805700000014991420916080916387_);}
	.st10{opacity:0.15;fill:url(#SVGID_00000111153869016727029040000014636227164405633934_);}
	.st11{opacity:0.4;fill:url(#SVGID_00000119087510959867112240000009555579377390973104_);}
	.st12{opacity:0.15;fill:url(#SVGID_00000173135657897477986960000001751546855771871922_);}
	.st13{opacity:0.3;fill:url(#SVGID_00000157288054451584854260000016501344776077701777_);}
	.st14{opacity:0.15;fill:url(#SVGID_00000178175369010627377710000016136978219346808497_);}
	.st15{opacity:0.3;fill:url(#SVGID_00000031920434404890528550000017009544875757887387_);}
	.st16{opacity:0.8;}
	.st17{opacity:0.15;fill:url(#SVGID_00000076579413627747339250000004816117387558480006_);}
	.st18{opacity:0.3;fill:url(#SVGID_00000134219305872971541190000008779823694452416414_);}
	.st19{opacity:0.15;fill:url(#SVGID_00000147940783605578892230000008530927564676389797_);}
	.st20{opacity:0.3;fill:url(#SVGID_00000049924911009706082330000003371483633422726571_);}
	.st21{opacity:0.25;fill:url(#SVGID_00000148654826077885426120000014226807236706094765_);}
	.st22{opacity:0.4;fill:url(#SVGID_00000158016602230297589370000007808241174560335532_);}
	.st23{opacity:0.1;fill:#006FF7;}
	.st24{fill:none;stroke:#FFFFFF;stroke-width:8;stroke-linecap:round;stroke-miterlimit:10;}
	.st25{opacity:0.2;fill:#006FF7;}
	.st26{opacity:0.1;fill:none;stroke:#006FF7;stroke-width:2;stroke-linecap:round;stroke-miterlimit:10;}
	.st27{opacity:5.000000e-02;fill:#006FF7;}
	.st28{opacity:3.000000e-02;fill:#006FF7;}
	.st29{opacity:7.000000e-02;fill:#006FF7;}
	.st30{fill:none;stroke:#FFFFFF;stroke-width:2;stroke-miterlimit:10;}
	.st31{opacity:0.15;fill:#006FF7;}
	.st32{opacity:4.000000e-02;fill:#006FF7;}
	.st33{opacity:0.1;fill:none;stroke:#006FF7;stroke-width:5;stroke-miterlimit:10;}
	.st34{fill:none;stroke:#FFFFFF;stroke-width:3;stroke-linecap:round;stroke-miterlimit:10;}
	.st35{opacity:0.1;fill:none;stroke:#006FF7;stroke-width:5;stroke-linecap:round;stroke-miterlimit:10;}
	.st36{opacity:0.15;fill:url(#SVGID_00000150806038046522893100000006031267086104361881_);}
	.st37{opacity:0.3;fill:url(#SVGID_00000072975991162567335620000010637658044946552728_);}
	.st38{opacity:0.15;fill:url(#SVGID_00000083085725657873237890000017850128831264232627_);}
	.st39{opacity:0.3;fill:url(#SVGID_00000119818669589148744120000010150970883583983534_);}
	.st40{opacity:0.25;fill:url(#SVGID_00000071557902526060380120000005268688992329504672_);}
	.st41{opacity:0.4;fill:url(#SVGID_00000012469547976963796920000013294426921372169873_);}
	.st42{opacity:0.3;fill:none;stroke:#006FF7;stroke-linecap:round;stroke-miterlimit:10;stroke-dasharray:5;}
	.st43{opacity:0.5;fill:#FFFFFF;}
	.st44{opacity:0.25;fill:url(#SVGID_00000165203579801013637220000018004956891759842745_);}
	.st45{opacity:0.4;fill:url(#SVGID_00000163035091132873778010000007521235203667627656_);}
	.st46{opacity:0.15;fill:url(#SVGID_00000145056735728446391920000005798567860216651158_);}
	.st47{opacity:0.4;fill:url(#SVGID_00000160164152490089248670000007702018472018768567_);}
	.st48{opacity:0.15;fill:url(#SVGID_00000124879058991954731140000001464631173274286763_);}
	.st49{opacity:0.3;fill:url(#SVGID_00000002373515017582036360000010585166670364469913_);}
	.st50{fill:none;}
	.st51{opacity:0.2;fill:url(#SVGID_00000099663418680122807730000000250860633581875627_);}
	.st52{opacity:0.3;fill:url(#SVGID_00000182500487328217517670000015638452154196817294_);}
	.st53{opacity:0.15;fill:url(#SVGID_00000088134440179995949770000002280167208357327768_);}
	.st54{opacity:0.3;fill:url(#SVGID_00000158736322121171434910000011036769768119777725_);}
	.st55{opacity:0.15;fill:url(#SVGID_00000165228858025886005470000011838016960488740752_);}
	.st56{opacity:0.3;fill:url(#SVGID_00000019663319814769859020000007107542517200312753_);}
	.st57{opacity:0.15;fill:url(#SVGID_00000044148240003797803550000000909651557350735777_);}
	.st58{opacity:0.3;fill:url(#SVGID_00000104663951155508783640000000239861563471785608_);}
</style>
<g class="st3">
	
		<radialGradient id="SVGID_1_" cx="-2811.7058" cy="3550.7791" r="169.9589" fx="-2802.9658" fy="3533.1614" gradientTransform="matrix(-0.6391 0.5869 -0.5517 -0.6081 364.962 3984.0259)" gradientUnits="userSpaceOnUse">
		<stop  offset="0.1936" style="stop-color:#006FF7"/>
		<stop  offset="0.2416" style="stop-color:#318BF9"/>
		<stop  offset="0.3013" style="stop-color:#67A9FA"/>
		<stop  offset="0.3618" style="stop-color:#96C3FC"/>
		<stop  offset="0.4216" style="stop-color:#BCD9FD"/>
		<stop  offset="0.4807" style="stop-color:#D9EAFE"/>
		<stop  offset="0.539" style="stop-color:#EEF5FE"/>
		<stop  offset="0.5958" style="stop-color:#FBFDFF"/>
		<stop  offset="0.6499" style="stop-color:#FFFFFF"/>
	</radialGradient>
	<path style="opacity:0.15;fill:url(#SVGID_1_);" d="M92.4,230.6C48.4,182.1,54.1,104.8,105,58s128-45.4,172,3.1
		s38.3,125.8-12.6,172.6S136.4,279.1,92.4,230.6z"/>
	
		<radialGradient id="SVGID_00000052814564209369927430000003022166253370168207_" cx="-2656.9998" cy="2832.8176" r="161.9326" fx="-2648.6724" fy="2816.032" gradientTransform="matrix(-0.6642 0.6101 -0.5657 -0.6233 56.3597 3578.2375)" gradientUnits="userSpaceOnUse">
		<stop  offset="0" style="stop-color:#8B8BFF"/>
		<stop  offset="0.2429" style="stop-color:#BDBDFF;stop-opacity:0.8136"/>
		<stop  offset="0.5864" style="stop-color:#FFFFFF;stop-opacity:0.55"/>
	</radialGradient>
	<path style="opacity:0.4;fill:url(#SVGID_00000052814564209369927430000003022166253370168207_);" d="M123,247.1
		C73.9,192.9,77,109.6,129.9,60.9s135.8-44.2,184.9,10s46.1,137.5-6.9,186.2S172.2,301.3,123,247.1z"/>
</g>
<g>
	<path class="st27" d="M275.2,170.7c0,41.4-33.7,75.1-75.1,75.1c-9.4,0-18.7-1.8-27.3-5.2c-4.6-1.8-9.1-4.1-13.3-6.8
		C137.9,220,125,196.4,125,170.7c0-28.3,15.7-53.9,40.9-66.9c2.3-1.2,4.6-2.2,6.9-3.1c5-1.9,10.1-3.3,15.4-4.2c4-0.6,7.9-1,12-1
		c4.1,0,8.1,0.3,11.9,1c13.3,2.1,25.5,7.8,35.5,16c0.5,0.4,1,0.9,1.6,1.3c3.4,2.9,6.5,6.1,9.3,9.6c0,0.1,0.1,0.1,0.1,0.2
		C269,136.5,275.2,152.9,275.2,170.7z"/>
	<path class="st27" d="M266.4,170.7c0,36.6-29.7,66.3-66.3,66.3c-13.2,0-25.5-3.9-35.8-10.5c-18.3-11.8-30.5-32.4-30.5-55.8
		c0-25.7,14.7-48,36.1-59c9.1-4.7,19.3-7.3,30.2-7.3C236.7,104.4,266.4,134.2,266.4,170.7z"/>
	<circle class="st27" cx="200.1" cy="170.7" r="57.5"/>
	<circle class="st27" cx="200.1" cy="170.7" r="48.5"/>
	<circle class="st0" cx="200.1" cy="170.7" r="36.5"/>
	<path class="st27" d="M212.1,88.1v8.4c-3.9-0.6-7.9-1-11.9-1c-4,0-8,0.3-11.9,1v-8.4H212.1z"/>
	<path class="st23" d="M211.7,81.2h-23.1c-1.9,0-3.5,1.6-3.5,3.5v0c0,1.9,1.6,3.5,3.5,3.5h23.1c1.9,0,3.5-1.6,3.5-3.5v0
		C215.2,82.7,213.6,81.2,211.7,81.2z"/>
	<g>
		<path class="st27" d="M262,120l-3.5,3.4c-2.8-3.5-5.9-6.7-9.3-9.6l3.5-3.4L262,120z"/>
		<path class="st23" d="M266,115.6l-8.9-9.1c-1.2-1.2-3.1-1.2-4.2,0l0,0c-1.2,1.2-1.2,3.1,0,4.2l8.9,9.1c1.2,1.2,3.1,1.2,4.2,0v0
			C267.2,118.6,267.2,116.7,266,115.6z"/>
	</g>
</g>
<path class="st23" d="M195.9,179.3l-1.8,14c-0.1,1,0.5,1.9,1.4,2.2h0c0.8,0.2,1.6,0,2.2-0.7l20.1-25.9c0.5-0.7,0.6-1.6,0.1-2.3
	l-0.3-0.4c-0.4-0.6-1-0.9-1.7-0.9h-9.8c-1.2,0-2.2-1.1-2-2.3l2-14c0.1-0.8-0.2-1.5-0.9-1.9l0,0c-0.9-0.6-2.1-0.4-2.7,0.4l-20.2,26
	c-0.4,0.6-0.5,1.3-0.3,2l0.2,0.4c0.3,0.8,1.1,1.3,1.9,1.2l9.7-0.1C195.1,177.1,196.1,178.1,195.9,179.3z"/>
</svg>
