<svg width="420" height="80" viewBox="0 0 420 80" xmlns="http://www.w3.org/2000/svg">
  <defs>
    <!-- Warmer tech-forward orange gradient -->
    <linearGradient id="warmOrange" x1="0%" y1="0%" x2="100%" y2="0%">
      <stop offset="0%" style="stop-color:#FF9A3C" />
      <stop offset="50%" style="stop-color:#FFA947" />
      <stop offset="100%" style="stop-color:#FFB84D" />
    </linearGradient>
    
    <!-- Fresh green gradient -->
    <linearGradient id="freshGreen" x1="0%" y1="0%" x2="100%" y2="0%">
      <stop offset="0%" style="stop-color:#10B981" />
      <stop offset="50%" style="stop-color:#34D399" />
      <stop offset="100%" style="stop-color:#6EE7B7" />
    </linearGradient>
  </defs>
  
  <!-- Voice waveform - closer to text -->
  <g transform="translate(2, 25)">
    <rect x="0" y="18" width="2.5" height="4" rx="1.25" fill="#22C55E"/>
    <rect x="4" y="14" width="2.5" height="12" rx="1.25" fill="#22C55E"/>
    <rect x="8" y="8" width="2.5" height="24" rx="1.25" fill="#22C55E"/>
    <rect x="12" y="12" width="2.5" height="16" rx="1.25" fill="#22C55E"/>
    <rect x="16" y="10" width="2.5" height="20" rx="1.25" fill="#22C55E"/>
    <rect x="20" y="16" width="2.5" height="8" rx="1.25" fill="#22C55E"/>
    <rect x="24" y="19" width="2.5" height="2" rx="1.25" fill="#22C55E"/>
    <rect x="28" y="17" width="2.5" height="6" rx="1.25" fill="#22C55E"/>
    <rect x="32" y="15" width="2.5" height="10" rx="1.25" fill="#22C55E"/>
    <rect x="36" y="20" width="2.5" height="2" rx="1.25" fill="#22C55E"/>
  </g>
  
  <!-- Company Name with tight spacing -->
  <text x="46" y="58" font-family="-apple-system, BlinkMacSystemFont, 'Inter', 'Segoe UI', Roboto, sans-serif" font-size="52" font-weight="900" letter-spacing="-0.02em">
    <tspan fill="url(#warmOrange)">Svörum</tspan>
    <tspan fill="url(#freshGreen)"> strax</tspan>
  </text>
</svg>
