<?xml version="1.0" encoding="utf-8"?>
<!-- Generator: Adobe Illustrator 28.2.0, SVG Export Plug-In . SVG Version: 6.00 Build 0)  -->
<svg version="1.1" id="Layer_1" xmlns="http://www.w3.org/2000/svg" xmlns:xlink="http://www.w3.org/1999/xlink" x="0px" y="0px"
	 viewBox="0 0 1000 286.26" style="enable-background:new 0 0 1000 286.26;" xml:space="preserve">
<style type="text/css">
	.st0{fill:#FFAE49;}
	.st1{fill:#1F2937;}
</style>
<g>
	<g>
		<rect x="132.52" y="105.42" class="st0" width="0.35" height="35.17"/>
		<rect x="132.52" y="105.42" class="st0" width="0.35" height="35.17"/>
		<g>
			<g>
				<rect x="91.13" y="105.42" class="st0" width="14.67" height="35.17"/>
				<rect x="143.82" y="105.42" class="st0" width="15.53" height="35.17"/>
			</g>
		</g>
		<path class="st0" d="M208.02,49.15v142.49c0,6.37-5.16,11.53-11.53,11.53h-39.05l-41.41,44.46c-1.96,2.1-5.48,0.72-5.48-2.16
			v-42.31l34.77-37.34h25.36V74.95H79.8v90.88h30.75v37.34H54c-6.37,0-11.53-5.16-11.53-11.53V49.15c0-6.37,5.16-11.53,11.53-11.53
			h142.49C202.86,37.61,208.02,42.78,208.02,49.15z"/>
		<rect x="117.61" y="91.4" class="st0" width="15.26" height="63.21"/>
	</g>
	<g>
		<g>
			<path class="st1" d="M253.94,130.98c0.24,2.74,1.57,4.95,3.98,6.64c2.42,1.69,5.51,2.53,9.3,2.53c3.62,0,6.48-0.58,8.57-1.75
				c2.09-1.17,3.14-2.84,3.14-5.01c0-1.61-0.48-2.82-1.45-3.62s-2.34-1.39-4.11-1.75c-1.77-0.36-4.67-0.79-8.69-1.27
				c-5.48-0.72-10.02-1.65-13.65-2.78c-3.62-1.13-6.52-2.9-8.69-5.31c-2.17-2.42-3.26-5.63-3.26-9.66c0-4.02,1.11-7.59,3.32-10.69
				c2.21-3.1,5.33-5.49,9.36-7.18c4.02-1.69,8.65-2.53,13.89-2.53c8.45,0.08,15.27,1.89,20.47,5.43c5.19,3.54,7.99,8.45,8.39,14.73
				h-16.18c-0.24-2.33-1.47-4.24-3.68-5.74c-2.22-1.49-5.05-2.23-8.51-2.23c-3.22,0-5.82,0.6-7.79,1.81
				c-1.97,1.21-2.96,2.82-2.96,4.83c0,1.45,0.52,2.53,1.57,3.26c1.05,0.72,2.42,1.25,4.11,1.57c1.69,0.32,4.51,0.68,8.45,1.09
				c8.37,0.97,14.79,2.76,19.26,5.37c4.47,2.62,6.7,7.11,6.7,13.46c0,4.03-1.19,7.57-3.56,10.63c-2.38,3.06-5.68,5.42-9.9,7.06
				c-4.23,1.65-9.12,2.48-14.67,2.48c-8.61,0-15.62-1.91-21.01-5.74c-5.39-3.82-8.25-9.03-8.57-15.64H253.94z"/>
			<path class="st1" d="M297.17,89.56h18.23l14.97,44.68l14.73-44.68h17.87l-22.34,62.07h-21.13L297.17,89.56z"/>
			<path class="st1" d="M379.34,148.43c-4.95-2.62-8.77-6.34-11.47-11.17c-2.7-4.83-4.04-10.38-4.04-16.66
				c0-6.28,1.35-11.83,4.04-16.66c2.7-4.83,6.52-8.55,11.47-11.17c4.95-2.62,10.69-3.93,17.21-3.93c6.52,0,12.26,1.31,17.21,3.93
				c4.95,2.62,8.77,6.34,11.47,11.17c2.7,4.83,4.05,10.38,4.05,16.66c0,6.36-1.35,11.94-4.05,16.72c-2.7,4.79-6.52,8.49-11.47,11.11
				c-4.95,2.62-10.69,3.93-17.21,3.93C390.03,152.35,384.29,151.05,379.34,148.43z M377.35,66.98c1.77-1.69,3.94-2.54,6.52-2.54
				c2.57,0,4.73,0.85,6.46,2.54c1.73,1.69,2.6,3.78,2.6,6.28c0,2.5-0.87,4.59-2.6,6.28c-1.73,1.69-3.88,2.54-6.46,2.54
				c-2.58,0-4.75-0.85-6.52-2.54c-1.77-1.69-2.66-3.78-2.66-6.28C374.69,70.77,375.58,68.68,377.35,66.98z M407.84,133.52
				c2.78-3.3,4.17-7.61,4.17-12.92c0-5.31-1.39-9.62-4.17-12.92c-2.78-3.3-6.54-4.95-11.29-4.95c-4.67,0-8.39,1.65-11.17,4.95
				c-2.78,3.3-4.17,7.61-4.17,12.92c0,5.31,1.39,9.62,4.17,12.92c2.78,3.3,6.5,4.95,11.17,4.95
				C401.3,138.47,405.06,136.82,407.84,133.52z M402.77,66.98c1.73-1.69,3.88-2.54,6.46-2.54c2.58,0,4.75,0.85,6.52,2.54
				c1.77,1.69,2.66,3.78,2.66,6.28c0,2.5-0.89,4.59-2.66,6.28c-1.77,1.69-3.94,2.54-6.52,2.54c-2.58,0-4.73-0.85-6.46-2.54
				c-1.73-1.69-2.6-3.78-2.6-6.28C400.17,70.77,401.03,68.68,402.77,66.98z"/>
			<path class="st1" d="M476.48,89.56v15.46h-6.76c-4.83,0-8.37,1.45-10.63,4.35c-2.25,2.9-3.38,6.84-3.38,11.83v30.43h-17.03V89.56
				h15.46l1.57,9.3c1.85-3.06,4.14-5.37,6.88-6.94c2.74-1.57,6.4-2.35,10.99-2.35H476.48z"/>
			<path class="st1" d="M542.53,89.56v62.07h-15.09l-1.57-7.49c-2.17,2.58-4.71,4.59-7.61,6.04c-2.9,1.45-6.44,2.17-10.63,2.17
				c-7.25,0-13.16-2.23-17.75-6.7c-4.59-4.47-6.88-11.93-6.88-22.4V89.56h17.03v31.64c0,5.64,0.99,9.88,2.96,12.74
				c1.97,2.86,5.01,4.29,9.12,4.29c4.27,0,7.57-1.59,9.9-4.77c2.33-3.18,3.5-7.63,3.5-13.34V89.56H542.53z"/>
			<path class="st1" d="M645.29,95.48c4.18,4.43,6.28,11.79,6.28,22.1v34.17h-17.03v-34.77c0-9.42-3.58-14.13-10.75-14.13
				c-3.7,0-6.68,1.31-8.94,3.93c-2.25,2.62-3.38,6.26-3.38,10.93v34.05h-17.03v-34.77c0-9.42-3.62-14.13-10.87-14.13
				c-3.7,0-6.66,1.35-8.87,4.04c-2.21,2.7-3.32,6.34-3.32,10.93v33.93h-17.03V89.56h14.85l1.57,7.73c2.09-2.66,4.59-4.71,7.49-6.16
				c2.9-1.45,6.52-2.21,10.87-2.29c8.85,0,15.01,3.5,18.48,10.5c2.25-3.38,5.21-5.98,8.87-7.79c3.66-1.81,7.83-2.72,12.5-2.72
				C635.67,88.84,641.1,91.06,645.29,95.48z"/>
			<path class="st0" d="M691.41,130.98c0.24,2.74,1.57,4.95,3.98,6.64c2.42,1.69,5.51,2.53,9.3,2.53c3.62,0,6.48-0.58,8.57-1.75
				c2.09-1.17,3.14-2.84,3.14-5.01c0-1.61-0.48-2.82-1.45-3.62s-2.34-1.39-4.11-1.75c-1.77-0.36-4.67-0.79-8.69-1.27
				c-5.48-0.72-10.02-1.65-13.65-2.78c-3.62-1.13-6.52-2.9-8.69-5.31c-2.17-2.42-3.26-5.63-3.26-9.66c0-4.02,1.11-7.59,3.32-10.69
				c2.21-3.1,5.33-5.49,9.36-7.18c4.02-1.69,8.65-2.53,13.89-2.53c8.45,0.08,15.27,1.89,20.47,5.43c5.19,3.54,7.99,8.45,8.39,14.73
				H715.8c-0.24-2.33-1.47-4.24-3.68-5.74c-2.22-1.49-5.05-2.23-8.51-2.23c-3.22,0-5.82,0.6-7.79,1.81
				c-1.97,1.21-2.96,2.82-2.96,4.83c0,1.45,0.52,2.53,1.57,3.26c1.05,0.72,2.42,1.25,4.11,1.57c1.69,0.32,4.51,0.68,8.45,1.09
				c8.37,0.97,14.79,2.76,19.26,5.37c4.47,2.62,6.7,7.11,6.7,13.46c0,4.03-1.19,7.57-3.56,10.63c-2.38,3.06-5.68,5.42-9.9,7.06
				c-4.23,1.65-9.12,2.48-14.67,2.48c-8.61,0-15.62-1.91-21.01-5.74c-5.39-3.82-8.25-9.03-8.57-15.64H691.41z"/>
			<path class="st0" d="M746.71,103.93h-10.26V89.56h10.26V72.18h17.03v17.39h14.13v14.37h-14.13v27.17c0,2.17,0.46,3.74,1.39,4.71
				c0.92,0.97,2.47,1.45,4.65,1.45h8.81v14.37h-14.13c-11.83,0-17.75-5.92-17.75-17.75V103.93z"/>
			<path class="st0" d="M823.51,89.56v15.46h-6.76c-4.83,0-8.37,1.45-10.63,4.35c-2.25,2.9-3.38,6.84-3.38,11.83v30.43h-17.03V89.56
				h15.46l1.57,9.3c1.85-3.06,4.14-5.37,6.88-6.94c2.74-1.57,6.4-2.35,10.99-2.35H823.51z"/>
			<path class="st0" d="M890.4,137.26v14.37h-8.69c-7.81,0-11.63-3.38-11.47-10.14c-2.25,3.54-5.03,6.24-8.33,8.09
				c-3.3,1.85-7.29,2.78-11.95,2.78c-6.92,0-12.5-1.59-16.72-4.77c-4.23-3.18-6.34-7.67-6.34-13.46c0-6.6,2.43-11.69,7.31-15.28
				c4.87-3.58,11.93-5.37,21.19-5.37h12.32v-3.02c0-2.82-1.05-5.05-3.14-6.7c-2.1-1.65-4.91-2.47-8.45-2.47
				c-3.14,0-5.72,0.68-7.73,2.05c-2.01,1.37-3.22,3.22-3.62,5.55h-16.42c0.56-6.36,3.38-11.29,8.45-14.79
				c5.07-3.5,11.79-5.25,20.16-5.25c8.77,0,15.56,1.93,20.35,5.8c4.79,3.86,7.18,9.46,7.18,16.78v21.86c0,1.53,0.32,2.58,0.97,3.14
				c0.64,0.56,1.65,0.85,3.02,0.85H890.4z M867.7,124.82h-12.44c-3.54,0-6.3,0.7-8.27,2.11c-1.97,1.41-2.96,3.4-2.96,5.98
				c0,2.17,0.82,3.91,2.48,5.19c1.65,1.29,3.88,1.93,6.7,1.93c4.43,0,7.93-1.27,10.5-3.8c2.58-2.54,3.9-5.94,3.99-10.2V124.82z"/>
			<path class="st0" d="M914.55,119.99l-21.98-30.43h19.44l12.92,18.35l13.16-18.35h18.23l-21.86,30.43l23.06,31.64H938.1
				l-14.25-19.44l-14.13,19.44h-18.23L914.55,119.99z"/>
		</g>
	</g>
</g>
</svg>

