<svg width="420" height="80" viewBox="0 0 420 80" xmlns="http://www.w3.org/2000/svg">
  <defs>
    <linearGradient id="orangeGrad" x1="0%" y1="0%" x2="100%" y2="0%">
      <stop offset="0%" style="stop-color:#FF9A3C" />
      <stop offset="50%" style="stop-color:#FFA947" />
      <stop offset="100%" style="stop-color:#FFB84D" />
    </linearGradient>
  </defs>
  
  <g transform="translate(2, 17.5)">
    <rect x="0" y="20" width="2.5" height="6" rx="1.25" fill="#1F2937"/>
    <rect x="4" y="16" width="2.5" height="14" rx="1.25" fill="#1F2937"/>
    <rect x="8" y="10" width="2.5" height="26" rx="1.25" fill="#1F2937"/>
    <rect x="12" y="6" width="2.5" height="34" rx="1.25" fill="#1F2937"/>
    <rect x="16" y="8" width="2.5" height="30" rx="1.25" fill="#1F2937"/>
    <rect x="20" y="14" width="2.5" height="18" rx="1.25" fill="#1F2937"/>
    <rect x="24" y="18" width="2.5" height="10" rx="1.25" fill="#1F2937"/>
    <rect x="28" y="16" width="2.5" height="14" rx="1.25" fill="#1F2937"/>
    <rect x="32" y="12" width="2.5" height="22" rx="1.25" fill="#1F2937"/>
    <rect x="36" y="20" width="2.5" height="6" rx="1.25" fill="#1F2937"/>
  </g>
  
  <text x="46" y="58" font-family="-apple-system, BlinkMacSystemFont, 'Inter', 'Segoe UI', Roboto, sans-serif" font-size="52" font-weight="900" letter-spacing="-0.02em">
    <tspan fill="#1F2937">Svörum</tspan>
    <tspan fill="url(#orangeGrad)"> strax</tspan>
  </text>
</svg>
