<?xml version="1.0" encoding="UTF-8"?>
<svg id="a" data-name="Layer 1" xmlns="http://www.w3.org/2000/svg" viewBox="0 0 2500 2500">
  <defs>
    <style>
      .b {
        fill: #fff;
      }

      .c {
        fill: #da2128;
      }
    </style>
  </defs>
  <rect class="b" y="0" width="2500" height="2500"/>
  <g>
    <g>
      <path class="c" d="M303.7,1789.6h16.9c18.2,0,40.1-.4,40.1-25.8s-23.9-25.4-41.7-25.4h-15.3v51.2M317.9,1673.2c16.2,0,30.3-1.6,30.3-23s-16.5-21.3-32.7-21.3h-11.7v44.3h14.2ZM201,1554.3h128.9c59,0,119.2,14.4,119.2,85.7s-13.3,53.7-40,62.3l-4.4,1.3,4.4,1.1c33.1,11.9,54.2,36.5,54.2,73.4,0,63.5-58.2,85.3-111.6,85.3h-150.7v-309.1Z"/>
      <polyline class="c" points="1607.9 1554.3 1718.7 1554.3 1718.7 1775.3 1779.4 1775.3 1779.4 1863.4 1607.9 1863.4 1607.9 1554.3"/>
      <polyline class="c" points="1795.7 1554.2 1906.4 1554.2 1906.4 1775.3 1967.1 1775.3 1967.1 1863.4 1795.7 1863.4 1795.7 1554.2"/>
      <polygon class="c" points="2094.5 1534.6 2114 1483.5 2199.7 1483.5 2186.2 1534.6 2094.5 1534.6"/>
      <path class="c" d="M942.1,1708.8c0-27.1,21.7-49.1,48.4-49.1s48.4,22,48.4,49.1-21.7,49.1-48.4,49.1-48.4-22-48.4-49.1"/>
      <polygon class="c" points="2181 1554.2 2087.2 1554.2 1969.2 1863.4 2084.8 1863.4 2134.2 1676.8 2183.6 1863.4 2299 1863.4 2181 1554.2"/>
      <polygon class="c" points="1488.1 1554.2 1394.3 1554.2 1276.3 1863.4 1391.9 1863.4 1441.3 1676.8 1490.7 1863.4 1606.1 1863.4 1488.1 1554.2"/>
      <polygon class="c" points="853.6 1554.3 828.8 1554.3 740.8 1554.3 740.6 1554.3 697.2 1718.3 653.7 1554.3 539.9 1554.3 458.4 1863.4 539.9 1863.4 565.5 1863.4 608.9 1699.4 652.4 1863.4 663.6 1863.4 728.3 1863.4 741.9 1863.4 785.3 1699.4 828.8 1863.4 935.9 1863.4 853.6 1554.3"/>
      <polygon class="c" points="1150.7 1863.4 1244.5 1863.4 1362.5 1554.3 1246.9 1554.3 1197.5 1740.8 1148.1 1554.3 1032.7 1554.3 1150.7 1863.4"/>
    </g>
    <g>
      <g>
        <rect class="c" x="1125.1" y="1071.4" width="113.1" height="229.8"/>
        <rect class="c" x="1262.6" y="1071.4" width="113.1" height="229.8"/>
        <rect class="c" x="1023.4" y="931.9" width="451.8" height="114.8"/>
        <polyline class="c" points="1101.9 907 1212 907 1249.9 860.8 1290.3 907.9 1404.3 907.9 1249.7 746.7 1101.9 907"/>
      </g>
      <path class="c" d="M1250,636.6c-222.8,0-403.5,180.6-403.5,403.4s180.6,403.5,403.5,403.5,403.4-180.6,403.4-403.5-180.6-403.4-403.4-403.4ZM1250,1354c-170.9,0-309.4-140.5-309.4-313.9s138.5-313.9,309.4-313.9,309.4,140.5,309.4,313.9-138.5,313.9-309.4,313.9Z"/>
    </g>
  </g>
</svg>