<svg xmlns="http://www.w3.org/2000/svg" viewBox="220 310 1500 450">
  <path fill="#2e586f" d="M721.2,429.9h135.63c89.87,0,141.13,44.44,124.87,116.07-16.1,70.97-88.35,116.07-177.55,116.07h-135.63l52.69-232.13ZM769.41,471.69l-33.87,149.23h75.94c58.03,0,99.69-27.19,110.37-74.28,10.84-47.75-18.47-74.95-76.5-74.95h-75.94ZM1025.45,479.65h55.38l-8.65,38.14c23.01-26.86,52-42.12,87.82-42.12,2.32,0,3.32,0,5.56.33l-10.31,45.43c-5.82-.66-11.71-1-17.68-1-28.19,0-56.54,10.94-73.21,31.83l-24.91,109.77h-55.38l41.4-182.39ZM1182.6,479.65h54.71l-41.4,182.39h-54.71l41.4-182.39ZM1233.81,417.63h56.37l-58.14,45.77h-43.44l45.2-45.77ZM1306.87,517.12h-60.69l8.5-37.48h60.69l2.48-10.94c8.81-38.8,29.07-55.05,75.17-55.05h64.99l-8.05,35.48h-50.07c-16.91,0-24.97,6.3-28.13,20.23l-2.33,10.28h73.61l-8.5,37.48h-73.61l-32.89,144.91h-54.05l32.89-144.91ZM1418.54,613.62c11.06-48.75,77.88-52.39,131.11-59.03,32.74-3.98,55.27-8.29,58.35-21.89,2.86-12.6-11.72-22.88-43.88-22.88-34.82,0-60.68,14.59-72.72,35.48h-52.06c20.13-40.46,72.07-70.63,134.74-70.63s96.34,25.53,85.13,74.94l-25.52,112.42h-54.38l6.1-26.86c-25.96,20.89-58.8,31.17-94.95,31.17-51.73,0-79.08-21.22-71.93-52.73ZM1509.71,634.18c27.86,0,60.88-9.62,82.18-27.52l7.83-34.49.15-.67c-14.4,7.96-36.56,10.61-58.39,13.26-33.81,4.31-64,7.3-68.59,27.53-3.08,13.6,10.29,21.89,36.82,21.89ZM366.05,508.6c6.43,9.34,17.08,14.92,28.46,14.92h67.46l-121.16-176.19h-78.26c-3.2,0-5.09,3.57-3.28,6.2l106.79,155.07ZM259.26,726.47c-1.81,2.63.08,6.2,3.28,6.2h78.26l121.16-176.19h-67.46c-11.38,0-22.03,5.58-28.46,14.92l-106.79,155.07ZM492.19,508.6c6.43,9.34,17.08,14.92,28.46,14.92h67.46l-121.16-176.19h-78.26c-3.2,0-5.09,3.57-3.28,6.2l106.79,155.07ZM385.41,726.47c-1.81,2.63.08,6.2,3.28,6.2h78.26l121.16-176.19h-67.46c-11.38,0-22.03,5.58-28.46,14.92l-106.79,155.07Z"/>
</svg>