<svg width="534" height="558" viewBox="0 0 534 558" fill="none" xmlns="http://www.w3.org/2000/svg">
<path d="M452.173 210.17C398.411 192.217 334.963 199.261 302.725 204.838C272.053 210.17 243.435 215.405 234.092 220.003L234.287 218.144L444.101 105.679L394.448 78.5276L321.754 116.49L240.5 158.952C224.601 167.708 186.542 182.042 175.682 214.867C170.79 229.64 172.796 255.029 172.796 255.029L171.475 255.568C171.475 255.568 164.529 224.699 168.834 203.322C175.682 169.518 191.19 160.762 231.01 140.803C249.599 131.459 282.472 113.897 312.949 97.9976C312.998 97.9486 313.047 97.9486 313.096 97.9006C344.991 81.2186 372.777 66.7386 372.777 66.7386L323.075 39.5396L291.278 56.1716L209.192 99.0746C150.88 129.502 140.265 153.228 140.265 195.152C140.265 225.874 159.588 274.94 159.588 274.94L158.071 275.722C158.071 275.722 133.025 223.917 128.329 187.374C122.165 139.335 138.797 112.625 184.145 88.9476C206.99 77.0116 301.355 27.7496 301.355 27.7496L251.702 0.599609L137.77 60.0856C92.1774 83.9096 78.0894 116.588 91.2974 162.229C109.984 226.754 185.808 342.742 185.808 342.742C185.808 342.742 185.76 342.791 185.124 343.525L0.797394 229.494L0.699402 286.093L145.01 382.758C150.733 386.427 159.05 392.346 168.834 398.021C185.27 407.609 204.104 415.387 223.231 411.278C251.507 405.212 261.731 396.211 261.731 396.211L262.758 396.847C262.758 396.847 255.714 403.059 246.517 409.174C212.91 431.579 188.01 435.346 133.661 399.831C100.151 377.964 0.748398 310.798 0.748398 310.798L0.699402 367.397L107.44 438.917C163.599 475.069 184.83 479.422 225.726 454.131C258.209 434.074 285.897 398.412 285.897 398.412L286.386 398.754L286.973 399.146C286.973 399.146 254.589 447.723 224.797 469.296C199.506 487.641 181.552 495.37 151.663 486.32C118.3 476.243 0.699402 392.053 0.699402 392.053L0.650391 448.652C0.650391 448.652 79.2144 502.561 109.054 521.248C143.885 543.067 191.287 535.631 220.003 513.519C237.271 500.213 248.376 489.696 273.667 457.556C299.888 424.193 350.323 333.887 350.323 333.887H351.448L351.302 352.232V557.4L398.362 525.945V352.232C397.97 334.083 400.71 291.181 378.794 268.923C364.069 253.953 344.551 247.789 344.551 247.789V246.224C344.551 246.224 368.276 249.355 387.257 265.009C420.326 292.257 418.957 324.642 418.908 352.281C418.81 392.297 418.908 512.247 418.908 512.247L465.968 480.792V352.232C465.968 286.485 456.037 266.477 412.793 245.49C375.419 227.341 333.006 226.314 333.006 226.314V224.602C333.006 224.602 384.077 221.813 425.071 239.669C469.49 258.992 486.465 283.549 486.465 334.719C486.465 372.534 486.465 466.948 486.465 466.948L533.525 435.493V307.031C533.476 255.616 488.373 222.254 452.173 210.17ZM332.957 299.204C332.957 338.633 301.013 370.577 261.584 370.577C222.155 370.577 190.211 338.633 190.211 299.204C190.211 259.775 222.155 227.83 261.584 227.83C301.013 227.83 332.957 259.775 332.957 299.204Z" fill="#008BFF"/>
</svg>