<?xml version="1.0" encoding="UTF-8"?><svg id="Layer_2" xmlns="http://www.w3.org/2000/svg" viewBox="0 0 640.7125 388.9086"><g id="Components"><g id="f3751a80-bf4d-4940-a211-1bade61dd477_1"><polygon points="0 317.7896 7.1883 317.7896 7.1883 347.2776 46.8109 347.2776 46.8109 317.7896 54.0507 317.7896 54.0507 387.5209 46.8109 387.5209 46.8109 354.127 7.1883 354.127 7.1883 387.5209 0 387.5209 0 317.7896" style="fill:#5f6060;"/><path d="M99.9074,388.9086c-8.6493,0-15.7753-2.9436-21.3861-8.8417-6.5757-6.9227-9.8582-15.8595-9.8582-26.8181,0-6.9254,1.3228-13.3521,3.9709-19.2718,2.6455-5.917,6.405-10.3217,11.2758-13.2029,4.8817-2.8786,10.2268-4.3179,16.0409-4.3179,5.0606,0,9.5492,1.0462,13.4469,3.1441,3.9167,2.1062,7.126,4.8382,9.636,8.194,2.5181,3.3556,4.4154,7.1694,5.6948,11.4248,1.2821,4.2665,1.9163,8.8092,1.9163,13.615,0,5.2856-.6885,9.8907-2.0627,13.8291-1.3878,3.9384-3.0493,7.2425-5.0091,9.888-1.9489,2.6591-3.9275,4.7434-5.9307,6.2803-2.6346,2.0546-5.5891,3.5888-8.8932,4.5727-3.3042,1.0055-6.2478,1.5043-8.8418,1.5043M99.1675,382.6094c6.4375,0,11.9426-2.51,16.5288-7.5299,4.5835-5.0063,6.8712-12.3329,6.8712-21.958,0-10.1862-2.5099-18.1578-7.538-23.9286-3.9411-4.4805-9.0857-6.714-15.4175-6.714-6.1827,0-11.5198,2.5317-16.0192,7.6139-4.4995,5.0713-6.7438,12.6527-6.7438,22.7412,0,9.9423,2.2118,17.3853,6.6489,22.343,4.4344,4.9547,9.6549,7.4323,15.6696,7.4323" style="fill:#5f6060;"/><path d="M145.4064,317.7896h22.8687c6.5324,0,11.7854.7183,15.7644,2.1605,3.971,1.4391,7.107,3.6835,9.3811,6.7328,2.2877,3.0603,3.4315,6.4268,3.4315,10.1023,0,4.0225-1.3553,7.5785-4.0658,10.6929-2.7105,3.1119-6.8305,5.4537-12.3464,7.0203l18.1605,33.0333h-7.7847l-17.6184-31.6563h-20.5512v31.6563h-7.2398v-69.7421ZM152.6462,323.8126v26.0779h15.9244c3.8761,0,7.7088-.5909,11.5198-1.7889,2.7648-.8565,4.8925-2.3067,6.386-4.3505,1.4935-2.0329,2.2443-4.4046,2.2443-7.1042,0-3.7379-1.4501-6.8197-4.3612-9.224-2.9139-2.4122-7.2859-3.6103-13.1298-3.6103h-18.5834Z" style="fill:#5f6060;"/><polygon points="211.3997 317.7896 222.7189 317.7896 259.6932 374.7841 259.6932 317.7896 266.8816 317.7896 266.8816 387.5209 259.6932 387.5209 218.6423 323.8559 218.6423 387.5209 211.3997 387.5209 211.3997 317.7896" style="fill:#5f6060;"/><path d="M293.0138,367.8397c2.4965,3.5888,4.9549,6.0879,7.3673,7.4947,2.4151,1.4094,5.2638,2.1169,8.5571,2.1169,3.9384,0,7.0094-.9081,9.2104-2.7296,2.2036-1.8324,3.3041-3.9818,3.3041-6.4699,0-2.1821-.8782-4.0984-2.6157-5.7491-1.7781-1.6615-5.7382-3.2499-11.8694-4.7868-8.3864-2.0546-14.3793-4.5727-17.9898-7.5488-4.4995-3.7379-6.7547-8.3649-6.7547-13.8915,0-5.9199,2.2552-10.8097,6.7547-14.6965,4.4995-3.8762,10.674-5.8115,18.5183-5.8115,4.4696,0,8.4596.6886,11.9535,2.0845,3.4965,1.3986,6.4592,3.1875,8.8959,5.3585,1.5775,1.4502,3.1551,3.4181,4.7326,5.9389l-12.4197,4.7325c-2.1088-2.7837-4.2582-4.8275-6.4592-6.1204-2.2036-1.2793-4.6377-1.9272-7.3374-1.9272-3.315,0-5.9713.8702-7.9635,2.5967-1.9787,1.7348-2.9735,3.8327-2.9735,6.2885,0,1.957.8159,3.6429,2.4666,5.0497,1.61,1.4204,5.6433,2.8705,12.1133,4.3722,6.4674,1.5043,11.3815,3.2527,14.7047,5.253,3.3366,1.9896,5.8357,4.5836,7.4973,7.7711,1.6507,3.1875,2.4883,6.4701,2.4883,9.8473,0,3.5562-1.068,7.1261-3.2092,10.7147-2.1278,3.5887-5.3045,6.3535-9.5059,8.2807-4.204,1.9381-9.0315,2.9003-14.4851,2.9003-5.1555,0-9.6359-.805-13.4253-2.4151-3.792-1.6074-7.0094-3.7786-9.6359-6.5106-1.7049-1.7457-3.4315-4.1932-5.1663-7.3158l13.2463-4.8275Z" style="fill:#5f6060;"/><polygon points="342.6707 317.1419 399.825 317.1419 399.825 329.2445 378.5852 329.2445 378.5852 387.5317 363.8047 387.5317 363.8047 329.2445 342.6707 329.2445 342.6707 317.1419" style="fill:#5f6060;"/><polygon points="409.8296 317.1419 460.389 317.1419 460.389 329.3827 424.6643 329.3827 424.6643 344.8842 446.4434 344.8842 446.4434 355.3225 424.6643 355.3225 424.6643 375.3777 460.389 375.3777 460.389 387.5317 409.8296 387.5317 409.8296 317.1419" style="fill:#5f6060;"/><rect x="471.7922" y="317.1419" width="14.7805" height="70.3788" style="fill:#5f6060;"/><polygon points="502.6436 317.1419 518.3158 317.1419 549.2538 364.3865 549.2538 317.1419 563.9395 317.1419 563.9395 387.5317 549.2538 387.5317 517.4674 338.4359 517.4674 387.5317 502.6436 387.5317 502.6436 317.1419" style="fill:#5f6060;"/><polygon points="579.4193 317.1419 595.0889 317.1419 626.0269 364.3865 626.0269 317.1419 640.7125 317.1419 640.7125 387.5317 626.0269 387.5317 594.2514 338.4359 594.2514 387.5317 579.4193 387.5317 579.4193 317.1419" style="fill:#5f6060;"/><polygon points="320.3561 86.217 305.2606 100.9287 305.2606 267.7493 350.7231 267.7493 350.7231 115.8118 320.3561 86.217" style="fill:#5f6060;"/><polygon points="255.4871 149.4372 255.4871 267.7493 288.9863 267.7493 288.9863 116.7893 255.4871 149.4372" style="fill:#5f6060;"/><polygon points="220.9844 183.0629 220.9844 267.7493 239.2127 267.7493 239.2127 165.2978 220.9844 183.0629" style="fill:#5f6060;"/><polygon points="186.4818 216.6885 186.4818 267.7493 204.7101 267.7493 204.7101 198.9234 186.4818 216.6885" style="fill:#5f6060;"/><polygon points="436.0025 267.7493 454.2308 267.7493 454.2308 216.6883 436.0025 198.9233 436.0025 267.7493" style="fill:#5f6060;"/><polygon points="401.4998 165.2977 401.4998 267.7493 419.7281 267.7493 419.7281 183.0628 401.4998 165.2977" style="fill:#5f6060;"/><polygon points="366.9971 131.6722 366.9971 267.7493 385.2254 267.7493 385.2254 149.4373 366.9971 131.6722" style="fill:#5f6060;"/><polygon points="288.9863 101.7859 288.9863 30.5723 255.4871 63.22 255.4871 134.4337 288.9863 101.7859" style="fill:#debe93;"/><polygon points="320.3561 71.2137 350.7231 100.8085 350.7231 29.5946 320.3561 0 305.2606 14.7118 305.2606 85.9254 320.3561 71.2137" style="fill:#debe93;"/><polygon points="204.7101 112.7059 186.4818 130.4709 186.4818 201.6848 204.7101 183.9198 204.7101 112.7059" style="fill:#debe93;"/><polygon points="239.2127 150.2943 239.2127 79.0805 220.9844 96.8455 220.9844 168.0593 239.2127 150.2943" style="fill:#debe93;"/><polygon points="454.2308 201.6846 454.2308 130.4709 436.0025 112.7059 436.0025 183.9197 454.2308 201.6846" style="fill:#debe93;"/><polygon points="385.2254 134.4338 385.2254 63.22 366.9971 45.455 366.9971 116.6688 385.2254 134.4338" style="fill:#debe93;"/><polygon points="419.7281 168.0592 419.7281 96.8454 401.4998 79.0805 401.4998 150.2943 419.7281 168.0592" style="fill:#debe93;"/></g></g></svg>