<svg xmlns="http://www.w3.org/2000/svg" viewBox="0 0 1080 1080">
  <path class="cls-1" fill="#3737f4" d="M431.6 152.84v774.33l-6.72-3.88h-.01l-50.82-29.35h-.02l-57.56-33.24V735.53l-50.84 29.35v66.47l-6.72-3.89h-.01l-50.82-29.34-57.58-33.24V315.13l57.56-33.23v-.02l50.84-29.33 6.73-3.9v383.29l50.84-29.35V219.3l57.56-33.23 50.84-29.35 6.73-3.88zM763.53 219.3v66.48l-57.56 33.23-50.84 29.35-6.73 3.89V160.61l-50.83 29.35V440.3l50.83-29.36 57.57-33.23 50.83-29.35 6.73-3.88V860.7l-57.56 33.24-50.84 29.35-6.73 3.88-50.83 29.35L540 989.75l-.01-.01-57.56-33.22V698.41L540 665.17l50.84-29.34 6.73-3.89v258.12l50.83 29.35V543.9l-50.83 29.35L540 606.48l-50.84 29.35-6.73 3.88V123.48l57.56-33.22.01-.01 57.57 33.23 50.83 29.36 6.72 3.88h.01l50.84 29.35 57.56 33.23zM929.48 440.32l.02-.02v324.58l-57.58 33.24-50.82 29.34-6.73 3.89V506.77l57.57-33.23 50.83-29.35 6.71-3.87zM929.5 315.13v66.46l-.02.02-57.54 33.23-50.84 29.35-6.73 3.88V248.65l6.72 3.9h.01l50.84 29.33 57.56 33.25z"/>
</svg>
