<?xml version="1.0" encoding="utf-8"?>
<!-- Generator: Adobe Illustrator 27.8.1, SVG Export Plug-In . SVG Version: 6.00 Build 0)  -->
<svg version="1.1" id="Layer_1" xmlns="http://www.w3.org/2000/svg" xmlns:xlink="http://www.w3.org/1999/xlink" x="0px" y="0px"
	 viewBox="0 0 1920 1080" style="enable-background:new 0 0 1920 1080;" xml:space="preserve">
<style type="text/css">
	.st0{fill:#004A8E;}
	.st1{fill:#FBAE17;}
	
		.st2{clip-path:url(#SVGID_00000059275853171198586320000003962173147106487713_);fill:url(#SVGID_00000027569226534980322370000017576732581016118689_);}
	.st3{fill:#FFFFFF;}
	.st4{fill:#00B39B;}
</style>
<g>
	<g>
		<g>
			<path class="st0" d="M1222.7,781.5V738h7.8v17.2c1.4-2.2,4.6-4,9-4c8.6,0,13.6,6.6,13.6,15.4c0,9-5.6,15.6-14,15.6
				c-4,0-7.2-1.8-8.8-4.4v3.6h-7.6V781.5z M1237.9,758.2c-4,0-7.4,3-7.4,8.4c0,5.4,3.4,8.4,7.4,8.4s7.4-3,7.4-8.4
				C1245.2,761.2,1242,758.2,1237.9,758.2z"/>
			<path class="st0" d="M1260,793.1l7-15.4l-12.6-25.9h9l7.8,17.4l7.2-17.4h8.6l-18.6,41.3H1260z"/>
		</g>
		<g>
			<path class="st0" d="M1315.9,774.9l-4.6-18.6l2.7-18.6h10.2l-2.6,18.2l4.6,18.6l-3.9,18.6h-10.2L1315.9,774.9z"/>
			<path class="st0" d="M1332,765.4c0-16.8,10.8-28.8,26.2-28.8c12.3,0,21.5,7.6,23.8,19h-10.2c-2-5.9-7.1-9.8-13.6-9.8
				c-9.6,0-16.4,8.1-16.4,19.5s6.8,19.5,16.4,19.5c6.5,0,11.5-3.8,13.5-9.5h10.3c-2.5,11.3-11.6,18.8-23.8,18.8
				C1342.9,794.2,1332,782.2,1332,765.4z"/>
			<path class="st0" d="M1389.1,737.7h32.6v9.2h-22.8v16.8c6.6-2.9,13.9-4.5,21.7-4.5v9c-7.9,0-15.2,1.8-21.7,5.2v10.6h22.8v9.2
				h-32.6V737.7z"/>
			<path class="st0" d="M1429.8,737.7h9.8v46.1h20.7v9.2h-30.5V737.7z"/>
			<path class="st0" d="M1463.7,793.1l20.6-55.4h10.3l20.5,55.4H1505l-4.1-11.2c-9.8,1.5-19,5.3-27,11.2H1463.7z M1497.8,773.5
				l-8.4-23.2l-10.8,29.7C1484.7,776.8,1491.1,774.6,1497.8,773.5z"/>
			<path class="st0" d="M1520.8,737.7h11.8l24.5,40.4v-40.4h9.7v55.4h-11.8l-24.4-40.3v40.3h-9.8V737.7z"/>
			<path class="st0" d="M1576.1,737.7h16.9c9.2,0,15.8,2.5,20.5,6.9c5.5,4.9,8.7,12.2,8.7,20.8c0,7.9-2.8,14.8-7.5,19.7
				c-4.8,5-11.9,8-21.8,8h-16.9V737.7z M1592.3,783.9c7.3,0,12.2-2.2,15.4-5.7c2.9-3.3,4.7-7.7,4.7-12.8c0-5.8-2.2-10.5-5.8-13.8
				c-3.2-2.8-7.5-4.6-14.2-4.6h-6.5v36.9H1592.3z"/>
			<path class="st0" d="M1629,737.7h9.8v55.4h-9.8V737.7z"/>
			<path class="st0" d="M1644.5,793.1l20.6-55.4h10.3l20.5,55.4h-10.2l-4.8-13.2l-10.5,4.3l-11.4-3.3l-4.5,12.2H1644.5z
				 M1670.1,774.8l7.8-3.2l-7.7-21.2l-8.1,22.2L1670.1,774.8z"/>
		</g>
	</g>
	<g>
		<g>
			<g>
				<path class="st0" d="M782.9,385.6c9.6-2.2,24.2-3.5,38.6-3.5c13.7,0,27.9,2,38,7.9c9.4,5.5,16.1,13.9,16.1,26.7
					c0,20.4-14.2,33-32.8,38.7v0.6c8.6,3.7,12.2,12.6,13.7,25.1c1.7,15.5,3,33.4,5.6,39.1h-31.8c-1.3-3.7-2.6-15.5-4.1-32.4
					c-1.3-16.7-7.5-21.8-19.7-21.8h-9.4l-10.7,54.2h-30.5L782.9,385.6z M801.8,444.1h12.7c16.7,0,29-9.6,29-23
					c0-11-9.7-15.9-22.1-15.9c-5.8,0-9.4,0.4-12,1L801.8,444.1z"/>
				<path class="st0" d="M967.2,514.6c-12.2,5.9-27.5,7.9-39.1,7.9c-30,0-45.5-16.1-45.5-42.2c0-30.4,23.2-61.9,61.2-61.9
					c21.2,0,36.5,11.4,36.5,29.9c0,25.3-26,34.4-68,33.4c0,2.9,1.1,7.3,3.2,10.2c4.1,5.1,11.2,7.7,20.2,7.7c11.4,0,21-2.4,29.4-6.3
					L967.2,514.6z M951.3,448.2c0-4.9-4.3-8.4-11.4-8.4c-14.4,0-22.5,11.4-24.7,20.6c24,0.2,36-2.9,36-12V448.2z"/>
				<path class="st0" d="M1026,420.7l6.4,43.4c1.5,10.4,2.6,17.5,3.4,23.8h0.4c2.4-6.1,4.5-12.6,9.2-23.4l19.1-43.8h32.6l-37.5,71.5
					c-14,26.5-26.4,44.6-40.3,57.1c-12.2,11-26.8,15.9-33.7,16.9l-6.9-25.1c4.9-1.4,11.8-3.9,17.8-7.9c7.1-4.7,13.1-10.6,17.2-17.3
					c0.9-1.4,0.9-2.7,0.4-4.7l-20.6-90.5H1026z"/>
				<path class="st0" d="M1093.6,520.3l29-144.6h30.7l-17.4,86.6h0.4c3.2-3.9,6.4-7.7,9.4-11.2l26.8-30.4h38.2l-44.6,41.2l29.2,58.5
					h-34.5l-18.5-42.6l-11.6,10.6l-6.4,32H1093.6z"/>
				<path class="st0" d="M1261.2,420.7l-18.9,96.4c-3.4,17.1-7.9,27.9-14.8,35.3c-6.9,7.3-17.8,10.6-28.5,10.6
					c-4.7,0-10.1-0.4-14.8-1.6l3.4-22c2.1,0.2,4.1,0.4,6.9,0.4c7.1,0,12.9-3.5,16.5-21.4l19.5-97.6H1261.2z M1248.5,407.6
					c-9,0-15.7-6.1-15.7-15.3c0-10.6,8.8-17.7,18.9-17.7c9.7,0,16.5,5.9,16.5,15.3c0,11.2-9,17.7-19.5,17.7H1248.5z"/>
				<path class="st0" d="M1335.7,520.3c0.2-5.7,0.9-12.6,1.3-19.8h-0.4c-9.9,16.5-23.4,22-35.6,22c-18.9,0-31.8-13.9-31.8-34.6
					c0-33.6,23.6-69.5,75.1-69.5c12.7,0,26,2.2,34.6,4.9l-10.5,52.2c-2.6,12.8-4.7,32.4-4.3,44.8H1335.7z M1344,441.5
					c-2.3-0.4-4.9-0.8-8.1-0.8c-20,0-34.5,23.2-34.5,41.8c0,9.8,4.1,16.5,12.7,16.5c9.2,0,21.2-10,25.8-34.4L1344,441.5z"/>
				<path class="st0" d="M1424.1,420.7l4.9,43.6c1.3,12.2,2.1,19.8,2.8,27.1h0.6c2.8-7.1,6-14.7,11.8-26.9l21-43.8h34.5l-58.4,99.6
					h-31.6l-17.6-99.6H1424.1z"/>
				<path class="st0" d="M1495.1,520.3l19.9-99.6h30.7l-19.7,99.6H1495.1z M1534.2,407.6c-9,0-15.7-6.1-15.7-15.3
					c0-10.6,8.8-17.7,18.9-17.7c9.7,0,16.5,5.9,16.5,15.3c0,11.2-9,17.7-19.5,17.7H1534.2z"/>
				<path class="st0" d="M1552,520.3l29-144.6h30.7l-17.4,86.6h0.4c3.2-3.9,6.4-7.7,9.4-11.2l26.8-30.4h38.2l-44.6,41.2l29.2,58.5
					h-34.6l-18.5-42.6l-11.6,10.6l-6.4,32H1552z"/>
			</g>
			<polygon class="st0" points="816.7,627.4 765.4,627.4 758.7,660.8 816.5,660.8 811.3,685.8 722.7,685.8 750.1,548.5 835.8,548.5 
				830.6,573.6 776.1,573.6 770.1,602.7 821.8,602.7 			"/>
			<g>
				<path class="st0" d="M873.7,586.2l6.2,14.9c3.4,8,5.4,13,6.9,16.9h0.6c3.6-5.5,6.7-10,11.2-16.1l11.6-15.7h35.4l-44.2,48.5
					l24.3,51.1h-33.9l-6.4-15.9c-3-7.1-4.9-12.2-6.9-18.1h-0.6c-2.8,4.7-5.6,10-10.5,16.7l-12.7,17.3H819l45.5-51.5l-24.7-48.1
					H873.7z"/>
				<path class="st0" d="M1016.2,682.8c-6.7,3.1-17.4,5.3-29.8,5.3c-26,0-44.2-15.1-44.2-41c0-35.4,28.5-63.2,68.5-63.2
					c9,0,16.7,1.6,21.5,3.5l-7.7,22.4c-3.6-1.4-7.9-2.4-14.2-2.4c-21.9,0-35.6,17.7-35.6,36.5c0,13.9,9.2,20.8,20.6,20.8
					c9,0,15.4-2,20.8-4.1L1016.2,682.8z"/>
				<path class="st0" d="M1146.1,586.2l-13.3,67.2c-2.6,12.6-4.3,23.4-5.8,32.4h-27.3l1.9-16.1l-0.4-0.2c-10.7,13-23.4,18.5-36,18.5
					c-17,0-27-9-27-27.9c0-5.3,0.9-11.4,2.1-18.3l11.2-55.6h30.9l-10.7,53.4c-0.8,4.5-1.5,9.6-1.5,13.2c0,6.3,2.8,11.4,10.5,11.4
					c10.5,0,21.5-12,25.3-31.8l9.2-46.2H1146.1z"/>
				<path class="st0" d="M1152.1,685.8l12-59.3c3-15.1,4.3-31.8,5.4-40.3h26.6c-0.4,6.7-1.1,13.4-1.9,20.6h0.9
					c7.3-13.5,18.9-22.8,33.3-22.8c2.1,0,4.1,0.2,5.8,0.2l-6,28.7c-1.3-0.2-3-0.2-4.7-0.2c-19.5,0-29,16.5-32.8,36.1l-7.3,37.1
					H1152.1z"/>
				<path class="st0" d="M1235.5,659.8c6,2.9,17.4,6.9,27.5,6.9c8.6,0,13.1-4.1,13.1-9c0-4.9-3.4-8.3-13.1-12.8
					c-12-5.7-22.1-14.1-22.1-26.5c0-20.8,19.1-34.4,46.1-34.4c12.2,0,21.9,2.4,26.8,5.1l-7.3,20.8c-4.3-1.8-11.8-4.3-21-4.3
					c-8.2,0-13.5,3.3-13.5,8.8c0,4.1,4.3,7.3,12.7,11.2c11.6,5.3,23.6,13.6,23.6,27.5c0,22.8-20.4,35.3-48.3,35
					c-13.1-0.2-25.8-3.5-32-7.7L1235.5,659.8z"/>
				<path class="st0" d="M1320.9,685.8l19.9-99.6h30.7l-19.7,99.6H1320.9z M1360,573.2c-9,0-15.7-6.1-15.7-15.3
					c0-10.6,8.8-17.7,18.9-17.7c9.7,0,16.5,5.9,16.5,15.3c0,11.2-9,17.7-19.5,17.7H1360z"/>
				<path class="st0" d="M1425.6,688.1c-26.8,0-44.6-16.5-44.6-41.2c0-34.4,25.3-63,62.7-63c28.3,0,44.6,18.4,44.6,41.2
					c0,36.3-26.4,62.9-62.4,62.9H1425.6z M1429.7,665.7c16.7,0,26.4-23.4,26.4-40.3c0-9.4-4.3-18.9-16.5-18.9
					c-17.8,0-26.8,24.4-26.8,39.9c0,11.6,6.2,19.3,16.7,19.3H1429.7z"/>
				<path class="st0" d="M1497.7,685.8l13.3-67.2c2.6-12.6,4.3-23.4,5.6-32.4h27.3l-1.9,16.5h0.4c9.9-12.8,23-18.7,36.7-18.7
					c17.2,0,27.1,10,27.1,27.3c0,4.5-0.7,11.8-1.7,16.7l-11.6,57.9h-30.9l10.9-55.2c0.6-3.5,1.1-7.3,1.1-11c0-7.1-2.6-12-10.5-12
					c-10.1,0-21.9,12-26.2,34l-8.6,44.2H1497.7z"/>
				<path class="st0" d="M1622.4,659.8c6,2.9,17.4,6.9,27.5,6.9c8.6,0,13.1-4.1,13.1-9c0-4.9-3.4-8.3-13.1-12.8
					c-12-5.7-22.1-14.1-22.1-26.5c0-20.8,19.1-34.4,46.1-34.4c12.2,0,21.9,2.4,26.8,5.1l-7.3,20.8c-4.3-1.8-11.8-4.3-21-4.3
					c-8.2,0-13.5,3.3-13.5,8.8c0,4.1,4.3,7.3,12.7,11.2c11.6,5.3,23.6,13.6,23.6,27.5c0,22.8-20.4,35.3-48.3,35
					c-13.1-0.2-25.8-3.5-32-7.7L1622.4,659.8z"/>
				<path class="st0" d="M219.3,285.6l13.9,254.1l28.5,6.6l77.2-56.1l82.8,78l85.6-38.8l52,85.1c0,0.1-0.1,0.3-0.1,0.4l27.8,6.4
					l109.1-278.5L219.3,285.6z"/>
				<path class="st1" d="M481,396.3c0,28.9-23.4,52.4-52.4,52.4c-28.9,0-52.4-23.4-52.4-52.4c0-28.9,23.4-52.4,52.4-52.4
					C457.6,344,481,367.4,481,396.3"/>
			</g>
			<g>
				<defs>
					<path id="SVGID_1_" d="M310.3,355.3c-18.9,3-34.1,12.7-53.6,13.5c1.5,59.2,3.1,118.3,4.9,177.5l77.2-56.1l82.8,78l85.6-38.8
						l52,85.1c19.2-59.7,38.4-119.4,58-179c-9.3-0.9-21.5,0.8-34.5,2.5c-27.7,3.7-58.5,7.3-69.1-15c-6.2-13-3.3-25-18.4-32.3
						c-4.6-2.2-9.8-3-15.2-3.1c0.5,2.9,0.7,5.8,0.7,8.9c0,28.9-23.4,52.4-52.4,52.4c-28.3,0-51.3-22.4-52.3-50.5
						c-13.5-1.7-24.8-6.7-30.8-18.2c-7.7-14.7-12.4-25.4-28.1-25.4C315.3,354.6,312.9,354.8,310.3,355.3"/>
				</defs>
				<clipPath id="SVGID_00000136374982730757277230000006558506745832386706_">
					<use xlink:href="#SVGID_1_"  style="overflow:visible;"/>
				</clipPath>
				
					<linearGradient id="SVGID_00000171701639742758196330000003884508216608267922_" gradientUnits="userSpaceOnUse" x1="630.9927" y1="942.7721" x2="639.9842" y2="942.7721" gradientTransform="matrix(0 16.6503 16.6503 0 -15260.3291 -10114.3008)">
					<stop  offset="0" style="stop-color:#00B39B"/>
					<stop  offset="7.142900e-02" style="stop-color:#00B39B"/>
					<stop  offset="0.2219" style="stop-color:#00AD9A"/>
					<stop  offset="0.4289" style="stop-color:#009B98"/>
					<stop  offset="0.6686" style="stop-color:#007E94"/>
					<stop  offset="0.931" style="stop-color:#00568F"/>
					<stop  offset="1" style="stop-color:#004A8E"/>
				</linearGradient>
				
					<rect x="256.8" y="354.6" style="clip-path:url(#SVGID_00000136374982730757277230000006558506745832386706_);fill:url(#SVGID_00000171701639742758196330000003884508216608267922_);" width="360.6" height="259.8"/>
			</g>
			<g>
				<path class="st3" d="M428.7,448.7c28.9,0,52.4-23.4,52.4-52.4c0-3-0.3-6-0.8-8.9c-11.1-0.2-23,2.9-32.6,4
					c-17.9,2.1-47.7,9.7-71.3,6.8C377.4,426.3,400.4,448.7,428.7,448.7"/>
				<path class="st4" d="M261.8,546.8c1.3,42.2,2.6,84.4,4,126.6c29-18.4,78.2-36.9,160-40.4C392,604.3,339.9,571.6,261.8,546.8"/>
				<path class="st4" d="M559.3,614.6c-169.7,22.1-233.8,73.4-257.1,102.5c75.3-2.1,150.7-4.2,226-6.2
					C538.6,678.8,549,646.7,559.3,614.6"/>
			</g>
		</g>
	</g>
</g>
</svg>
