<?xml version="1.0" encoding="utf-8"?>
<!-- Generator: Adobe Illustrator 29.7.1, SVG Export Plug-In . SVG Version: 9.03 Build 0)  -->
<svg version="1.0" id="Layer_1" xmlns="http://www.w3.org/2000/svg" xmlns:xlink="http://www.w3.org/1999/xlink" x="0px" y="0px"
	 viewBox="0 0 406.6 319.5" style="enable-background:new 0 0 406.6 319.5;" xml:space="preserve">
<style type="text/css">
	.st0{fill:#FFFFFF;}
	.st1{opacity:0.2;fill:url(#SVGID_1_);}
	.st2{opacity:0.3;fill:url(#SVGID_00000089561941473005293530000006026104548011218569_);}
	.st3{opacity:0.9;}
	.st4{opacity:0.25;fill:url(#SVGID_00000059310780512766756760000010304024207719360649_);}
	.st5{opacity:0.4;fill:url(#SVGID_00000124155852676694055080000007697063586729378473_);}
	.st6{opacity:0.15;fill:url(#SVGID_00000114786244563667750460000015513684793552503701_);}
	.st7{opacity:0.3;fill:url(#SVGID_00000174569644581432588720000013743103616188438930_);}
	.st8{opacity:0.15;fill:url(#SVGID_00000072993312990361165830000008119189506531839402_);}
	.st9{opacity:0.3;fill:url(#SVGID_00000111911000679519502830000015551485937120513167_);}
	.st10{opacity:0.15;fill:url(#SVGID_00000019660157939272761630000012981981780932747162_);}
	.st11{opacity:0.4;fill:url(#SVGID_00000172411656486407981000000002485423480181237164_);}
	.st12{opacity:0.15;fill:url(#SVGID_00000148640298564161298580000004304736768694446491_);}
	.st13{opacity:0.3;fill:url(#SVGID_00000101817667586971780670000012113076795747883190_);}
	.st14{opacity:0.15;fill:url(#SVGID_00000006690373555671347160000011284891226329401472_);}
	.st15{opacity:0.3;fill:url(#SVGID_00000168097729576219627170000001707946315663592118_);}
	.st16{opacity:0.8;}
	.st17{opacity:0.15;fill:url(#SVGID_00000132080807800842055400000010971516646998775959_);}
	.st18{opacity:0.3;fill:url(#SVGID_00000164505114075089587520000017712359176752023468_);}
	.st19{opacity:0.15;fill:url(#SVGID_00000081649946043592790060000011568771431605563034_);}
	.st20{opacity:0.3;fill:url(#SVGID_00000031181899960055750910000006972772593219695757_);}
	.st21{opacity:0.25;fill:url(#SVGID_00000029765246312943137000000007421988933458050472_);}
	.st22{opacity:0.4;fill:url(#SVGID_00000156551584635306219220000014088143323097136050_);}
	.st23{opacity:0.1;fill:#006FF7;}
	.st24{fill:none;stroke:#FFFFFF;stroke-width:8;stroke-linecap:round;stroke-miterlimit:10;}
	.st25{opacity:0.2;fill:#006FF7;}
	.st26{opacity:0.1;fill:none;stroke:#006FF7;stroke-width:2;stroke-linecap:round;stroke-miterlimit:10;}
	.st27{opacity:5.000000e-02;fill:#006FF7;}
	.st28{opacity:3.000000e-02;fill:#006FF7;}
	.st29{opacity:7.000000e-02;fill:#006FF7;}
	.st30{fill:none;stroke:#FFFFFF;stroke-width:2;stroke-miterlimit:10;}
	.st31{opacity:0.15;fill:#006FF7;}
	.st32{opacity:4.000000e-02;fill:#006FF7;}
	.st33{opacity:0.1;fill:none;stroke:#006FF7;stroke-width:5;stroke-miterlimit:10;}
	.st34{fill:none;stroke:#FFFFFF;stroke-width:3;stroke-linecap:round;stroke-miterlimit:10;}
	.st35{opacity:0.1;fill:none;stroke:#006FF7;stroke-width:5;stroke-linecap:round;stroke-miterlimit:10;}
	.st36{opacity:0.15;fill:url(#SVGID_00000151513482917444547760000015169472537672819884_);}
	.st37{opacity:0.3;fill:url(#SVGID_00000026148697218699140000000001454673342177840537_);}
	.st38{opacity:0.15;fill:url(#SVGID_00000075162298338933818480000005158845762109805218_);}
	.st39{opacity:0.3;fill:url(#SVGID_00000034799550831627443770000001112401565621645194_);}
	.st40{opacity:0.25;fill:url(#SVGID_00000177480556628536434210000009526298223439366283_);}
	.st41{opacity:0.4;fill:url(#SVGID_00000160151953298075253150000014146998991642312329_);}
	.st42{opacity:0.3;fill:none;stroke:#006FF7;stroke-linecap:round;stroke-miterlimit:10;stroke-dasharray:5;}
	.st43{opacity:0.5;fill:#FFFFFF;}
	.st44{opacity:0.25;fill:url(#SVGID_00000003073897418727987450000017820186645850920601_);}
	.st45{opacity:0.4;fill:url(#SVGID_00000056428544320619640190000000672346771229626267_);}
	.st46{opacity:0.15;fill:url(#SVGID_00000111870915829512550620000016727799762842078646_);}
	.st47{opacity:0.4;fill:url(#SVGID_00000039829390549632093160000007745822540378006958_);}
	.st48{opacity:0.15;fill:url(#SVGID_00000116216999069737757060000012367490401277194167_);}
	.st49{opacity:0.3;fill:url(#SVGID_00000111892639006519962560000003116419952859567291_);}
	.st50{fill:none;}
	.st51{opacity:0.2;fill:url(#SVGID_00000164506252262990636070000000004948372658672527_);}
	.st52{opacity:0.3;fill:url(#SVGID_00000150810886083799964550000017558855522042954125_);}
	.st53{opacity:0.15;fill:url(#SVGID_00000103973946709481242040000014467612273674456448_);}
	.st54{opacity:0.3;fill:url(#SVGID_00000107587656766930198070000003772782117597854398_);}
	.st55{opacity:0.15;fill:url(#SVGID_00000018931639894948697250000015835258993942270849_);}
	.st56{opacity:0.3;fill:url(#SVGID_00000138543020437707959960000004292213373013113256_);}
	.st57{opacity:0.15;fill:url(#SVGID_00000078027594854429877740000012446572493792090754_);}
	.st58{opacity:0.3;fill:url(#SVGID_00000161627844879695957660000002545290340455705216_);}
</style>
<g>
	
		<radialGradient id="SVGID_1_" cx="-2593.8694" cy="2903.8081" r="162.3856" fx="-2585.5188" fy="2886.9756" gradientTransform="matrix(-0.6391 0.5869 -0.5517 -0.6081 120.8541 3456.4043)" gradientUnits="userSpaceOnUse">
		<stop  offset="0.1936" style="stop-color:#006FF7"/>
		<stop  offset="0.2416" style="stop-color:#318BF9"/>
		<stop  offset="0.3013" style="stop-color:#67A9FA"/>
		<stop  offset="0.3618" style="stop-color:#96C3FC"/>
		<stop  offset="0.4216" style="stop-color:#BCD9FD"/>
		<stop  offset="0.4807" style="stop-color:#D9EAFE"/>
		<stop  offset="0.539" style="stop-color:#EEF5FE"/>
		<stop  offset="0.5958" style="stop-color:#FBFDFF"/>
		<stop  offset="0.6499" style="stop-color:#FFFFFF"/>
	</radialGradient>
	<path style="opacity:0.15;fill:url(#SVGID_1_);" d="M70.9,221.8C28.9,175.4,34.3,101.6,83,56.9s122.3-43.4,164.3,2.9
		s36.6,120.2-12.1,164.9S113,268.1,70.9,221.8z"/>
	
		<radialGradient id="SVGID_00000017498585850603243440000009553419530122952108_" cx="-2496.269" cy="2227.7324" r="154.717" fx="-2488.3127" fy="2211.6948" gradientTransform="matrix(-0.6642 0.6101 -0.5657 -0.6233 -185.6996 3052.9939)" gradientUnits="userSpaceOnUse">
		<stop  offset="0" style="stop-color:#8B8BFF"/>
		<stop  offset="0.2429" style="stop-color:#BDBDFF;stop-opacity:0.8136"/>
		<stop  offset="0.5864" style="stop-color:#FFFFFF;stop-opacity:0.55"/>
	</radialGradient>
	<path style="opacity:0.3;fill:url(#SVGID_00000017498585850603243440000009553419530122952108_);" d="M120.8,194.6
		c-47-51.8-44-131.4,6.6-177.9S257.1-25.5,304,26.2s44,131.4-6.6,177.9S167.8,246.4,120.8,194.6z"/>
</g>
<g>
	<g>
		<polygon class="st0" points="227.1,230.7 227.2,230.7 181.5,230.7 152.8,214.3 153,214.3 152.8,214.3 198.5,214.3 227.2,230.7 		
			"/>
		<polygon class="st0" points="227.2,230.7 227.2,243.3 181.5,243.3 181.5,230.7 227.2,230.7 		"/>
		<polygon class="st0" points="181.5,243.3 152.8,226.9 152.8,214.3 181.5,230.7 		"/>
	</g>
	<polygon class="st27" points="227.1,230.7 227.2,230.7 181.5,230.7 152.8,214.3 153,214.3 152.8,214.3 198.5,214.3 227.2,230.7 	
		"/>
	<polygon class="st31" points="227.2,230.7 227.2,243.3 181.5,243.3 181.5,230.7 227.2,230.7 	"/>
	<polygon class="st23" points="181.5,243.3 152.8,226.9 152.8,214.3 181.5,230.7 	"/>
</g>
<g>
	<rect x="227.2" y="137.9" class="st23" width="52.4" height="57.5"/>
	<rect x="152.8" y="121.6" class="st23" width="45.7" height="57.5"/>
	<polygon class="st25" points="198.5,179.1 227.2,195.5 227.2,137.9 198.5,121.6 	"/>
	<polygon class="st31" points="279.7,137.9 250.9,121.6 198.5,121.6 227.2,137.9 	"/>
	<polygon class="st27" points="198.5,121.6 152.8,121.6 124.3,105.2 169.8,105.2 	"/>
	<polygon class="st23" points="250.9,109 198.5,109 169.8,92.7 222.2,92.7 	"/>
	<line class="st50" x1="227.2" y1="138" x2="198.5" y2="121.6"/>
	<polygon class="st31" points="152.8,179.1 124.3,162.7 124.3,105.2 152.8,121.6 	"/>
	<rect x="198.4" y="109" class="st27" width="52.6" height="12.5"/>
	<polygon class="st31" points="169.8,92.7 169.8,105.2 198.4,121.5 198.5,109 	"/>
</g>
<g>
	<g>
		<polygon class="st0" points="227.1,182.6 227.2,182.6 181.5,182.6 152.8,166.2 153,166.3 152.8,166.2 198.5,166.2 227.2,182.6 		
			"/>
		<polygon class="st0" points="227.2,182.6 227.2,220.6 181.5,220.6 181.5,182.6 227.2,182.6 		"/>
		<polygon class="st0" points="181.5,220.6 152.8,204.2 152.8,166.2 181.5,182.6 		"/>
	</g>
	<polygon class="st27" points="227.1,182.6 227.2,182.6 181.5,182.6 152.8,166.2 153,166.3 152.8,166.2 198.5,166.2 227.2,182.6 	
		"/>
	<polygon class="st31" points="227.2,182.6 227.2,220.6 181.5,220.6 181.5,182.6 227.2,182.6 	"/>
	<polygon class="st23" points="181.5,220.6 152.8,204.2 152.8,166.2 181.5,182.6 	"/>
</g>
</svg>
