<?xml version="1.0" encoding="utf-8"?>
<!-- Generator: Adobe Illustrator 29.7.1, SVG Export Plug-In . SVG Version: 9.03 Build 0)  -->
<svg version="1.0" id="Layer_1" xmlns="http://www.w3.org/2000/svg" xmlns:xlink="http://www.w3.org/1999/xlink" x="0px" y="0px"
	 viewBox="0 0 406.6 319.5" style="enable-background:new 0 0 406.6 319.5;" xml:space="preserve">
<style type="text/css">
	.st0{fill:#FFFFFF;}
	.st1{opacity:0.2;fill:url(#SVGID_1_);}
	.st2{opacity:0.3;fill:url(#SVGID_00000026863426629218027330000007177612016021042832_);}
	.st3{opacity:0.9;}
	.st4{opacity:0.25;fill:url(#SVGID_00000112595270725695256660000001202809861256903328_);}
	.st5{opacity:0.4;fill:url(#SVGID_00000054241252972617130570000007433152141601595023_);}
	.st6{opacity:0.15;fill:url(#SVGID_00000065763896112531513000000016013272592176314814_);}
	.st7{opacity:0.3;fill:url(#SVGID_00000170254338859361755650000012560150838863920560_);}
	.st8{opacity:0.15;fill:url(#SVGID_00000014616395890221787920000009217905167392209292_);}
	.st9{opacity:0.3;fill:url(#SVGID_00000064355569199298617720000002605380228204311461_);}
	.st10{opacity:0.15;fill:url(#SVGID_00000134228082542279228130000010146846727401514424_);}
	.st11{opacity:0.4;fill:url(#SVGID_00000089540948106139963790000010524369354689588892_);}
	.st12{opacity:0.15;fill:url(#SVGID_00000144323474578647228850000013082957778921915529_);}
	.st13{opacity:0.3;fill:url(#SVGID_00000098931484727412684980000010259952767859704734_);}
	.st14{opacity:0.15;fill:url(#SVGID_00000179633542922680534970000001178451201043403175_);}
	.st15{opacity:0.3;fill:url(#SVGID_00000140707815953624567990000006013954465301759666_);}
	.st16{opacity:0.8;}
	.st17{opacity:0.15;fill:url(#SVGID_00000051384706956233857410000000099978379954435738_);}
	.st18{opacity:0.3;fill:url(#SVGID_00000172403277452592528140000004661209755016659096_);}
	.st19{opacity:0.15;fill:url(#SVGID_00000017515338348410064310000017333753179721206446_);}
	.st20{opacity:0.3;fill:url(#SVGID_00000011746838968915280150000009096395817823783040_);}
	.st21{opacity:0.25;fill:url(#SVGID_00000153690847237416157170000002135288731743194521_);}
	.st22{opacity:0.4;fill:url(#SVGID_00000035498113302690180080000001270143902385285559_);}
	.st23{opacity:0.1;fill:#006FF7;}
	.st24{fill:none;stroke:#FFFFFF;stroke-width:8;stroke-linecap:round;stroke-miterlimit:10;}
	.st25{opacity:0.2;fill:#006FF7;}
	.st26{opacity:0.1;fill:none;stroke:#006FF7;stroke-width:2;stroke-linecap:round;stroke-miterlimit:10;}
	.st27{opacity:5.000000e-02;fill:#006FF7;}
	.st28{opacity:3.000000e-02;fill:#006FF7;}
	.st29{opacity:7.000000e-02;fill:#006FF7;}
	.st30{fill:none;stroke:#FFFFFF;stroke-width:2;stroke-miterlimit:10;}
	.st31{opacity:0.15;fill:#006FF7;}
	.st32{opacity:4.000000e-02;fill:#006FF7;}
	.st33{opacity:0.1;fill:none;stroke:#006FF7;stroke-width:5;stroke-miterlimit:10;}
	.st34{fill:none;stroke:#FFFFFF;stroke-width:3;stroke-linecap:round;stroke-miterlimit:10;}
	.st35{opacity:0.1;fill:none;stroke:#006FF7;stroke-width:5;stroke-linecap:round;stroke-miterlimit:10;}
	.st36{opacity:0.15;fill:url(#SVGID_00000081624141444974039310000018271674613253710981_);}
	.st37{opacity:0.3;fill:url(#SVGID_00000166655680869716066530000000348966796856962239_);}
	.st38{opacity:0.15;fill:url(#SVGID_00000000211242108059478920000011833833371001377462_);}
	.st39{opacity:0.3;fill:url(#SVGID_00000034792940435114709760000011947859633198239106_);}
	.st40{opacity:0.25;fill:url(#SVGID_00000144329468271442136580000014136407922297278083_);}
	.st41{opacity:0.4;fill:url(#SVGID_00000172436975532771495310000014189817142129636485_);}
	.st42{opacity:0.3;fill:none;stroke:#006FF7;stroke-linecap:round;stroke-miterlimit:10;stroke-dasharray:5;}
	.st43{opacity:0.5;fill:#FFFFFF;}
	.st44{opacity:0.25;fill:url(#SVGID_00000159436790682197227410000003285475158530889129_);}
	.st45{opacity:0.4;fill:url(#SVGID_00000045620252543580797750000011858653708671918470_);}
	.st46{opacity:0.15;fill:url(#SVGID_00000114769216330437218780000008048593126445057161_);}
	.st47{opacity:0.4;fill:url(#SVGID_00000092424405154570862300000000772225255599784607_);}
	.st48{opacity:0.15;fill:url(#SVGID_00000035511881329705791010000005865183335526928560_);}
	.st49{opacity:0.3;fill:url(#SVGID_00000048498248395687531150000007220579636798706562_);}
	.st50{fill:none;}
	.st51{opacity:0.2;fill:url(#SVGID_00000095319426877566714590000004319030502784816819_);}
	.st52{opacity:0.3;fill:url(#SVGID_00000127733912217829600870000015092587987715250066_);}
	.st53{opacity:0.15;fill:url(#SVGID_00000147182196791159133760000016673661069458583203_);}
	.st54{opacity:0.3;fill:url(#SVGID_00000086652058716975289450000015558332830139643529_);}
	.st55{opacity:0.15;fill:url(#SVGID_00000063600904067326946580000005617936240940044419_);}
	.st56{opacity:0.3;fill:url(#SVGID_00000085209493718690129490000018412752803221988788_);}
	.st57{opacity:0.15;fill:url(#SVGID_00000175317158985010815920000011417656823678663308_);}
	.st58{opacity:0.3;fill:url(#SVGID_00000088847005005840051400000003456780417858725276_);}
</style>
<g class="st16">
	
		<radialGradient id="SVGID_1_" cx="-7633.4497" cy="1559.5061" r="151.5849" fx="-7625.6543" fy="1543.7931" gradientTransform="matrix(-7.338055e-02 0.8646 -0.8177 -7.436024e-02 921.9207 6872.728)" gradientUnits="userSpaceOnUse">
		<stop  offset="0.1936" style="stop-color:#006FF7"/>
		<stop  offset="0.2416" style="stop-color:#318BF9"/>
		<stop  offset="0.3013" style="stop-color:#67A9FA"/>
		<stop  offset="0.3618" style="stop-color:#96C3FC"/>
		<stop  offset="0.4216" style="stop-color:#BCD9FD"/>
		<stop  offset="0.4807" style="stop-color:#D9EAFE"/>
		<stop  offset="0.539" style="stop-color:#EEF5FE"/>
		<stop  offset="0.5958" style="stop-color:#FBFDFF"/>
		<stop  offset="0.6499" style="stop-color:#FFFFFF"/>
	</radialGradient>
	<path style="opacity:0.15;fill:url(#SVGID_1_);" d="M168,260.4c-58.2-5.3-101.1-59.4-95.9-120.9C77.3,78,128.7,32.4,186.9,37.7
		s101.1,59.4,95.9,120.9C277.5,220.2,226.1,265.7,168,260.4z"/>
	
		<radialGradient id="SVGID_00000023972245664637621530000012835308167320990372_" cx="-7281.5898" cy="1056.2404" r="144.4264" fx="-7274.1626" fy="1041.2694" gradientTransform="matrix(-7.608046e-02 0.8987 -0.8383 -7.604582e-02 555.2365 6776.7915)" gradientUnits="userSpaceOnUse">
		<stop  offset="0" style="stop-color:#8B8BFF"/>
		<stop  offset="0.2429" style="stop-color:#BDBDFF;stop-opacity:0.8136"/>
		<stop  offset="0.5864" style="stop-color:#FFFFFF;stop-opacity:0.55"/>
	</radialGradient>
	<path style="opacity:0.3;fill:url(#SVGID_00000023972245664637621530000012835308167320990372_);" d="M194.7,247
		c-65-5.9-113.3-62.5-107.9-126.4s62.5-111,127.5-105.1S327.6,78,322.1,141.9S259.7,252.8,194.7,247z"/>
</g>
<g>
	<path class="st23" d="M268.1,168.9h-87.5c-4.1,0-7.4-3.3-7.4-7.4v-43.9c0-4.1,3.3-7.4,7.4-7.4h87.5c4.1,0,7.4,3.3,7.4,7.4v43.9
		C275.4,165.6,272.1,168.9,268.1,168.9z"/>
	<path class="st0" d="M266.6,165h-84.7c-2.5,0-4.5-2-4.5-4.5v-41c0-2.5,2-4.5,4.5-4.5h84.7c2.5,0,4.5,2,4.5,4.5v41
		C271,163,269,165,266.6,165z"/>
	<circle class="st27" cx="193.4" cy="136.7" r="7.3"/>
	<line class="st26" x1="209.3" y1="131.2" x2="253.8" y2="131.2"/>
	<line class="st26" x1="209.3" y1="136.7" x2="243.6" y2="136.7"/>
	<line class="st26" x1="209.3" y1="142.3" x2="234.2" y2="142.3"/>
</g>
<g>
	<path class="st23" d="M221.2,211.4h-87.5c-4.1,0-7.4-3.3-7.4-7.4v-43.9c0-4.1,3.3-7.4,7.4-7.4h87.5c4.1,0,7.4,3.3,7.4,7.4V204
		C228.5,208.1,225.2,211.4,221.2,211.4z"/>
	<path class="st0" d="M219.6,207.5H135c-2.5,0-4.5-2-4.5-4.5v-41c0-2.5,2-4.5,4.5-4.5h84.7c2.5,0,4.5,2,4.5,4.5v41
		C224.1,205.5,222.1,207.5,219.6,207.5z"/>
	<circle class="st27" cx="146.5" cy="179.3" r="7.3"/>
	<line class="st26" x1="162.4" y1="173.7" x2="206.9" y2="173.7"/>
	<line class="st26" x1="162.4" y1="179.3" x2="196.7" y2="179.3"/>
	<line class="st26" x1="162.4" y1="184.8" x2="187.3" y2="184.8"/>
</g>
<g>
	<path class="st32" d="M249.9,246.5c-14.8,0-25.6-7.6-25.6-18.1s10.8-18.1,25.6-18.1s25.6,7.6,25.6,18.1S264.7,246.5,249.9,246.5z"
		/>
	<path class="st32" d="M249.9,241.8c-11.8,0-20.3-5.7-20.3-13.5s8.5-13.5,20.3-13.5c11.8,0,20.3,5.7,20.3,13.5
		S261.6,241.8,249.9,241.8z"/>
	<path class="st32" d="M249.9,237.2c-8.7,0-15.1-3.7-15.1-8.8c0-5.1,6.3-8.8,15.1-8.8c8.7,0,15.1,3.7,15.1,8.8
		C264.9,233.5,258.6,237.2,249.9,237.2z"/>
	<ellipse class="st32" cx="249.9" cy="228.4" rx="9.8" ry="4.1"/>
</g>
<g>
	<path class="st32" d="M146.5,117.2c-14.8,0-25.6-7.6-25.6-18.1S131.7,81,146.5,81c14.8,0,25.6,7.6,25.6,18.1
		S161.3,117.2,146.5,117.2z"/>
	<path class="st32" d="M146.5,112.6c-11.8,0-20.3-5.7-20.3-13.5s8.5-13.5,20.3-13.5c11.8,0,20.3,5.7,20.3,13.5
		S158.2,112.6,146.5,112.6z"/>
	<path class="st32" d="M146.5,107.9c-8.7,0-15.1-3.7-15.1-8.8c0-5.1,6.3-8.8,15.1-8.8s15.1,3.7,15.1,8.8
		C161.5,104.2,155.2,107.9,146.5,107.9z"/>
	<ellipse class="st32" cx="146.5" cy="99.1" rx="9.8" ry="4.1"/>
</g>
<path class="st42" d="M146.5,192.2v32.6c0,3,2.5,5.5,5.5,5.5h72.3"/>
<path class="st42" d="M193.4,125.4v-20.8c0-3-2.5-5.5-5.5-5.5h-14.7"/>
</svg>
