<svg width="171" height="33" viewBox="0 0 171 33" fill="none" xmlns="http://www.w3.org/2000/svg">
<path d="M146.053 31.6673C146.053 32.4033 113.559 33.0001 73.4748 33.0001C33.3923 33.0001 0.898926 32.4033 0.898926 31.6673C0.898926 30.9311 33.3918 30.3345 73.4748 30.3345C113.559 30.3345 146.053 30.9311 146.053 31.6673Z" fill="#153D97"/>
<path d="M4.43964 5.10321H9.99817L5.59017 27.2172H0L4.43964 5.10321ZM7.05912 0H12.8414L8.97638 4.02066H5.0791L7.05912 0Z" fill="#262526"/>
<path d="M8.43311 22.0829H13.2887C13.3846 23.3822 14.1512 24.4027 16.1633 24.4027C17.5047 24.4027 18.4312 23.9697 18.4312 22.8872C18.4312 21.7735 16.9619 21.4953 14.7901 20.8767C12.0428 20.1034 9.9345 19.0208 9.9345 16.2065C9.9345 12.7735 12.9371 10.918 16.9941 10.918C20.6038 10.918 23.7343 12.4026 23.9579 15.9902H19.2623C19.1346 14.8768 18.2721 14.1347 16.8025 14.1347C15.7484 14.1347 14.6624 14.5057 14.6624 15.4641C14.6624 16.3918 15.9082 16.7011 18.2081 17.3197C20.7637 18.031 23.2552 19.1138 23.2552 22.0825C23.2552 25.7631 20.5082 27.7115 16.068 27.7115C12.2346 27.7118 8.59287 26.0416 8.43311 22.0829Z" fill="#262526"/>
<path d="M28.8781 5.10315H34.0849L29.6772 27.2169H24.4697L28.8781 5.10315Z" fill="#262526"/>
<path d="M33.3501 23.0417C33.3501 19.1755 36.321 18.0622 40.3139 17.7839C43.5403 17.5675 44.85 17.3818 44.85 15.8355C44.85 14.9387 44.1791 14.32 42.8055 14.32C41.2404 14.32 40.2501 15.0004 39.8987 16.3921H35.1392C35.746 13.1136 38.3014 10.9487 43.0612 10.9487C44.9459 10.9487 46.7348 11.258 48.0125 12.2168C49.354 13.1757 50.0888 14.8458 49.5777 17.4438L48.1083 24.7431C47.8528 25.9492 47.9167 26.6603 48.2042 27.0006V27.2171H43.2849C43.0931 26.8461 43.0291 26.1656 43.0291 25.4852H42.9653C41.8793 26.7224 40.4098 27.6193 38.4931 27.6193C35.6501 27.6193 33.3501 26.0109 33.3501 23.0417ZM43.8278 21.7123L44.211 19.7636C43.4765 20.1033 42.6459 20.2894 41.432 20.4751C40.1222 20.6912 38.3014 20.7845 38.3014 22.6093C38.3014 23.8465 39.1638 24.4029 40.4093 24.4029C42.1666 24.4027 43.4444 23.4433 43.8278 21.7121V21.7123Z" fill="#262526"/>
<path d="M53.8593 11.3815H58.8106L58.2993 13.8867H58.3954C59.705 12.062 61.3341 10.9174 63.6662 10.9174C66.9564 10.9174 68.873 13.3919 68.0743 17.4743L66.1258 27.2169H61.0148L62.8995 17.8458C63.2508 16.1139 62.6758 15.0004 60.9831 15.0004C59.2262 15.0004 57.9486 16.5467 57.5336 18.5261L55.8089 27.217H50.6968L53.8593 11.3815Z" fill="#262526"/>
<path d="M69.6717 20.7844C69.6717 15.8975 72.6427 10.918 77.9453 10.918C80.1494 10.918 81.6509 11.846 82.5452 13.4233H82.6411L84.3019 5.10315H89.413L85.0052 27.2169H80.1175L80.4688 25.3927H80.405C79.3509 26.7535 77.7856 27.7119 75.7731 27.7119C72.0673 27.7118 69.6398 24.9902 69.6717 20.7844ZM81.7465 18.2479C81.7465 16.3612 80.9161 14.6911 78.872 14.6911C76.1249 14.6911 74.943 17.9076 74.943 20.4127C74.943 22.2067 75.6137 23.8151 77.69 23.8151C80.405 23.8151 81.7465 20.722 81.7465 18.2479Z" fill="#262526"/>
<path d="M87.8804 22.0829H92.7363C92.8316 23.3822 93.5981 24.4027 95.6106 24.4027C96.9528 24.4027 97.8783 23.9697 97.8783 22.8872C97.8783 21.7735 96.4089 21.4953 94.2374 20.8767C91.4903 20.1034 89.3816 19.0208 89.3816 16.2065C89.3816 12.7735 92.3839 10.918 96.4415 10.918C100.051 10.918 103.182 12.4026 103.405 15.9902H98.7092C98.5812 14.8768 97.7193 14.1347 96.2499 14.1347C95.1956 14.1347 94.1094 14.5057 94.1094 15.4641C94.1094 16.3918 95.3554 16.7011 97.6549 17.3197C100.211 18.031 102.702 19.1138 102.702 22.0825C102.702 25.7631 99.9552 27.7115 95.5152 27.7115C91.6819 27.7118 88.0402 26.0416 87.8804 22.0829Z" fill="#262526"/>
<path d="M110.274 24.8666H110.21L109.763 27.2172H104.844L109.251 5.10327H114.362L112.766 13.0829H112.862C114.043 11.7838 115.513 10.9178 117.493 10.9178C121.135 10.9178 123.179 13.8252 123.179 17.722C123.179 22.4851 120.656 27.7119 115.226 27.7119C113.149 27.7119 111.168 26.9077 110.274 24.8666ZM118.005 18.0314C118.005 16.3921 117.43 14.6911 115.386 14.6911C112.574 14.6911 111.296 17.8459 111.296 20.3204C111.296 22.0829 112.063 23.753 114.203 23.753C116.982 23.753 118.004 20.5674 118.004 18.0314H118.005Z" fill="#262526"/>
<path d="M126.406 11.3815H131.517L128.354 27.2171H123.243L126.406 11.3815ZM129.632 4.94849H135.542L131.134 9.52589H127.204L129.632 4.94849Z" fill="#262526"/>
<path d="M135.638 5.10327H140.845L136.436 27.2172H131.229L135.638 5.10327Z" fill="#262526"/>
<path d="M139.472 23.0418C139.472 19.1756 142.442 18.0622 146.435 17.784C149.661 17.5675 150.972 17.3818 150.972 15.8355C150.972 14.9387 150.301 14.32 148.927 14.32C147.362 14.32 146.371 15.0004 146.02 16.3921H141.261C141.867 13.1137 144.423 10.9487 149.183 10.9487C151.067 10.9487 152.856 11.258 154.134 12.2168C155.476 13.1757 156.21 14.8458 155.699 17.4438L154.23 24.7431C153.974 25.9492 154.038 26.6604 154.325 27.0007V27.2172H149.406C149.214 26.8461 149.151 26.1656 149.151 25.4852H149.086C148 26.7224 146.532 27.6193 144.615 27.6193C141.771 27.6193 139.472 26.0109 139.472 23.0418ZM149.949 21.7123L150.332 19.7637C149.598 20.1033 148.767 20.2894 147.553 20.4752C146.244 20.6912 144.423 20.7845 144.423 22.6093C144.423 23.8465 145.286 24.4029 146.531 24.4029C148.288 24.4027 149.566 23.4434 149.949 21.7121V21.7123Z" fill="#262526"/>
<path d="M160.651 11.3815H165.57L165.027 13.9796H165.123C166.305 12.1238 167.806 11.1341 169.85 11.1341C170.238 11.1234 170.625 11.165 171 11.2578L170.106 15.7119H170.01C166.72 15.2478 164.739 16.485 163.973 20.2892L162.599 27.2172H157.488L160.651 11.3815Z" fill="#262526"/>
</svg>
