<svg xmlns="http://www.w3.org/2000/svg" id="Warstwa_1" viewBox="0 0 1200 628.72"><defs><style>.cls-1{fill:#38b6ff;}</style></defs><path class="cls-1" d="M349.37,97.23h35.33v432.74h-26.2l-145.56-218.99,136.43-213.75ZM118.16,310.97L251.99,97.23H115.18v432.74h144.64l-141.66-218.99ZM603.33,343.34h58.64l-88.14-149.59,86.03-96.21h-66.37l-71.99,79.36v-79.36h-49.16v245.81h49.16v-93.06l18.96-19.31,62.86,112.37ZM853.03,97.53h-163.99v49.16h163.99v-49.16ZM689.04,241.51h135.9v-49.16h-135.9v49.16ZM689.04,343.69h162.94v-49.16h-162.94v49.16ZM1031.36,97.53l-50.22,92.7-50.57-92.7h-54.43l80.41,155.91v90.24h49.16v-90.24l80.06-155.91h-54.43ZM512.71,481.48v18.45c0,4.68-.95,7.93-2.86,9.78-1.91,1.85-4.46,2.77-7.66,2.77s-5.75-.92-7.66-2.77c-1.91-1.84-2.86-5.1-2.86-9.78v-69.73c0-4.68.95-7.96,2.86-9.87,1.91-1.91,4.46-2.86,7.66-2.86s5.75.96,7.66,2.86c1.91,1.91,2.86,5.19,2.86,9.87v13.83h19.19v-12.54c0-10.45-2.55-18.48-7.66-24.07-5.11-5.59-12.63-8.39-22.6-8.39s-17.5,2.8-22.6,8.39c-5.1,5.59-7.66,13.62-7.66,24.07v67.15c0,10.45,2.55,18.48,7.66,24.07,5.11,5.6,12.64,8.39,22.6,8.39s17.49-2.79,22.6-8.39c5.1-5.59,7.66-13.62,7.66-24.07v-17.16h-19.19ZM583.63,400.5h-29.7l-20.66,129.13h18.63l3.5-23.43h24.91l3.5,23.43h20.48l-20.66-129.13ZM567.77,423.38l9.78,65.3h-19.55l9.78-65.3ZM671.75,529.63c-.98-2.46-1.6-4.89-1.84-7.28-.25-2.4-.37-5.19-.37-8.39v-19.92c0-6.76-.95-12.51-2.86-17.25-1.91-4.73-5.44-8.14-10.61-10.24,8.85-4.18,13.28-12.91,13.28-26.2v-10.14c0-9.96-2.37-17.4-7.1-22.32-4.73-4.92-12.39-7.38-22.97-7.38h-30.62v129.13h20.29v-52.57h7.01c4.68,0,8.06,1.23,10.15,3.69,2.09,2.46,3.14,6.71,3.14,12.73v20.29c0,2.58.03,4.73.09,6.45.06,1.72.19,3.14.37,4.25.19,1.1.4,2.03.65,2.77.24.74.49,1.54.74,2.4h20.66ZM638.73,418.95c3.57,0,6.18,1.05,7.84,3.14,1.66,2.1,2.49,5.48,2.49,10.15v12.73c0,5.16-1.08,8.73-3.23,10.7-2.15,1.97-5.13,2.95-8.95,2.95h-7.93v-39.66h9.78ZM765.27,529.63c-.98-2.46-1.6-4.89-1.84-7.28-.25-2.4-.37-5.19-.37-8.39v-19.92c0-6.76-.95-12.51-2.86-17.25-1.91-4.73-5.44-8.14-10.61-10.24,8.85-4.18,13.28-12.91,13.28-26.2v-10.14c0-9.96-2.37-17.4-7.1-22.32-4.73-4.92-12.39-7.38-22.97-7.38h-30.62v129.13h20.29v-52.57h7.01c4.68,0,8.06,1.23,10.15,3.69,2.09,2.46,3.14,6.71,3.14,12.73v20.29c0,2.58.03,4.73.09,6.45.06,1.72.19,3.14.37,4.25.19,1.1.4,2.03.65,2.77.24.74.49,1.54.74,2.4h20.66ZM732.26,418.95c3.57,0,6.18,1.05,7.84,3.14,1.66,2.1,2.49,5.48,2.49,10.15v12.73c0,5.16-1.08,8.73-3.23,10.7-2.15,1.97-5.13,2.95-8.95,2.95h-7.93v-39.66h9.78ZM790.73,418.95h35.05v-18.44h-55.34v129.13h55.34v-18.45h-35.05v-37.81h27.85v-18.45h-27.85v-35.97ZM874.99,529.63h20.85v-129.13h-18.08v77.29l-20.85-77.29h-25.45v129.13h18.26v-93.52l25.27,93.52ZM899.77,418.95h21.21v110.68h20.29v-110.68h21.21v-18.44h-62.72v18.44ZM1005.3,400.5h-29.7l-20.66,129.13h18.63l3.5-23.43h24.91l3.5,23.43h20.48l-20.66-129.13ZM989.43,423.38l9.78,65.3h-19.55l9.78-65.3ZM1030.33,529.63h53.68v-18.45h-33.39v-110.68h-20.29v129.13Z"></path></svg>