<?xml version="1.0" encoding="utf-8"?>
<!-- Generator: Adobe Illustrator 24.3.0, SVG Export Plug-In . SVG Version: 6.00 Build 0)  -->
<svg version="1.1" id="Layer_1" xmlns="http://www.w3.org/2000/svg" xmlns:xlink="http://www.w3.org/1999/xlink" x="0px" y="0px"
	 viewBox="0 0 516.5 143.8" style="enable-background:new 0 0 516.5 143.8;" xml:space="preserve">
<style type="text/css">
	.st0{fill:#FFFFFF;}
</style>
<path class="st0" d="M165,8.4v125.7h-33.9l-77-85.5L41.6,34.5l-6.2-7l-6.2-7h-0.5l0.1,4.7L29,30v104.1H8.5V8.4h33.7l67.1,75
	l17.5,19.7l8.8,9.8l8.6,9.8h0.5l-0.1-4.7l-0.1-4.8V8.4H165z"/>
<path class="st0" d="M277.5,21.4v112.7h-20.6V21.4h-59.6v-13h139.7v13H277.5z"/>
<path class="st0" d="M489.2,92.4h20.5v4.8c0,17.1-4.3,27.7-12.8,32c-8.5,4.3-29.9,6.4-64.2,6.4c-30.7,0-50.2-3.8-58.5-11.3
	c-8.4-7.5-12.5-25.2-12.5-53c0-21.8,0.9-35.4,2.8-41c1.9-5.6,7.2-10.6,16.1-15c10.4-5.1,32.8-7.7,67.2-7.7c23.3,0,39.1,2.5,47.2,7.4
	c8.1,4.9,12.2,14.5,12.1,28.6l0.1,3.4H487l-0.1-3.8c0-10-2.4-16.4-7.2-19.3c-4.8-2.9-15.6-4.3-32.3-4.4c-29.5,0-47.5,1.7-54,5
	c-6.5,3.3-9.8,12.7-9.8,28c0,35.2,2.2,55.9,6.6,62s19.4,9.1,45,9.1c24.3,0,39.5-1.3,45.6-3.9c6-2.6,9-9.2,9-19.8L489.2,92.4z"/>
</svg>
